<svg viewBox="0 0 14 12" fill="none" xmlns="http://www.w3.org/2000/svg">
<path fill-rule="evenodd" clip-rule="evenodd" d="M12.3334 0.666672H1.66671C0.930328 0.666672 0.333374 1.26363 0.333374 2.00001V10C0.333374 10.7364 0.930328 11.3333 1.66671 11.3333H12.3334C13.0698 11.3333 13.6667 10.7364 13.6667 10V2.00001C13.6667 1.26363 13.0698 0.666672 12.3334 0.666672ZM12.3334 2.00001V3.93334L7.43337 7.36667C7.17279 7.54753 6.82729 7.54753 6.56671 7.36667L1.66671 3.93334V2.00001H12.3334ZM1.66671 5.33334V10H12.3334V5.33334L8.10004 8.29334C7.43941 8.75513 6.56068 8.75513 5.90004 8.29334L1.66671 5.33334Z" fill="currentColor"/>
</svg>
