<svg viewBox="0 0 16 14" fill="none" xmlns="http://www.w3.org/2000/svg">
  <path
    d="M2.80465 0.861969L1.86194 1.80468L3.38798 3.33072C1.61008 4.76026 0.77385 6.61078 0.720011 6.73697L0.608032 6.99999L0.720011 7.26301C0.808678 7.47034 2.95196 12.3333 7.99996 12.3333C9.37752 12.3333 10.5314 11.9663 11.4921 11.4349L13.1953 13.138L14.138 12.1953L2.80465 0.861969ZM7.99996 1.66666C7.19263 1.66666 6.46665 1.80041 5.80465 2.01041L6.9023 3.10806C7.24964 3.04206 7.61263 2.99999 7.99996 2.99999C11.5973 2.99999 13.445 6.05872 13.927 6.99739C13.731 7.37272 13.3015 8.10129 12.6289 8.83462L13.5794 9.78515C14.6994 8.57315 15.2366 7.36368 15.2799 7.26301L15.3919 6.99999L15.2799 6.73697C15.1912 6.52964 13.048 1.66666 7.99996 1.66666ZM4.3411 4.28384L5.70829 5.65103C5.47192 6.04603 5.33329 6.50592 5.33329 6.99999C5.33329 8.47066 6.52929 9.66666 7.99996 9.66666C8.49403 9.66666 8.95392 9.52802 9.34892 9.29166L10.4987 10.4414C9.78286 10.7808 8.95216 11 7.99996 11C4.40263 11 2.55488 7.94126 2.07288 7.00259C2.34996 6.47195 3.09345 5.24187 4.3411 4.28384ZM8.14189 4.34765L10.6523 6.85806C10.5796 5.50273 9.49722 4.42031 8.14189 4.34765ZM6.7161 6.65884L8.3411 8.28384C8.23193 8.31319 8.11857 8.33332 7.99996 8.33332C7.26463 8.33332 6.66663 7.73532 6.66663 6.99999C6.66663 6.88138 6.68676 6.76802 6.7161 6.65884Z"
    fill="#848194"
  />
</svg>