<svg viewBox="0 0 16 16" fill="none" xmlns="http://www.w3.org/2000/svg">
  <path
    d="M7.99996 2.66667C2.66663 2.66667 0.666626 8 0.666626 8C0.666626 8 2.66663 13.3333 7.99996 13.3333C13.3333 13.3333 15.3333 8 15.3333 8C15.3333 8 13.3333 2.66667 7.99996 2.66667ZM7.99996 4.00001C11.5173 4.00001 13.2964 6.84473 13.8724 7.9974C13.2957 9.14207 11.5033 12 7.99996 12C4.48263 12 2.70356 9.15528 2.12756 8.00261C2.7049 6.85794 4.49663 4.00001 7.99996 4.00001ZM7.99996 5.33334C6.52729 5.33334 5.33329 6.52734 5.33329 8C5.33329 9.47267 6.52729 10.6667 7.99996 10.6667C9.47263 10.6667 10.6666 9.47267 10.6666 8C10.6666 6.52734 9.47263 5.33334 7.99996 5.33334ZM7.99996 6.66667C8.73663 6.66667 9.33329 7.26334 9.33329 8C9.33329 8.73667 8.73663 9.33334 7.99996 9.33334C7.26329 9.33334 6.66663 8.73667 6.66663 8C6.66663 7.26334 7.26329 6.66667 7.99996 6.66667Z"
    fill="#848194"
  />
</svg>