<svg viewBox="0 0 12 14" fill="none" xmlns="http://www.w3.org/2000/svg">
<path fill-rule="evenodd" clip-rule="evenodd" d="M3.33329 5.66666H9.99996C10.7363 5.66666 11.3333 6.26362 11.3333 7V12.3333C11.3333 13.0697 10.7363 13.6667 9.99996 13.6667H1.99996C1.26358 13.6667 0.666626 13.0697 0.666626 12.3333V7C0.666626 6.26362 1.26358 5.66666 1.99996 5.66666V4.33333C1.99996 2.12419 3.79082 0.333328 5.99996 0.333328C8.2091 0.333328 9.99996 2.12419 9.99996 4.33333H8.66663C8.66663 2.86057 7.47272 1.66666 5.99996 1.66666C4.5272 1.66666 3.33329 2.86057 3.33329 4.33333V5.66666ZM1.99996 6.99999V12.3333H9.99996V6.99999H1.99996Z" fill="currentColor"/>
</svg>
