<svg viewBox="0 0 21 21" fill="none" xmlns="http://www.w3.org/2000/svg">
<path fill-rule="evenodd" clip-rule="evenodd" d="M10.5 0C4.70101 0 0 4.70101 0 10.5C0 16.299 4.70101 21 10.5 21C16.299 21 21 16.299 21 10.5C21 7.71523 19.8938 5.04451 17.9246 3.07538C15.9555 1.10625 13.2848 0 10.5 0ZM10.5002 18.8993C5.86099 18.8993 2.10019 15.1384 2.10019 10.4993C2.10019 5.86006 5.86099 2.09925 10.5002 2.09925C15.1394 2.09925 18.9002 5.86006 18.9002 10.4993C18.9002 12.7271 18.0152 14.8636 16.4399 16.439C14.8646 18.0143 12.728 18.8993 10.5002 18.8993ZM11.5493 4.72351V5.24851C12.7091 5.24851 13.6493 6.18871 13.6493 7.34851V8.13601C13.6493 8.42596 13.4142 8.66101 13.1243 8.66101H12.3368C12.0468 8.66101 11.8118 8.42596 11.8118 8.13601V7.08601H9.18675V8.01001C9.18239 8.08823 9.21796 8.16334 9.28125 8.20951L12.8828 11.181C13.3666 11.5787 13.6477 12.1717 13.6493 12.798V13.6485C13.6493 14.8083 12.7091 15.7485 11.5493 15.7485V16.2735C11.5493 16.5635 11.3142 16.7985 11.0243 16.7985H9.97425C9.6843 16.7985 9.44925 16.5635 9.44925 16.2735V15.7485C8.28946 15.7485 7.34925 14.8083 7.34925 13.6485V12.861C7.34925 12.5711 7.5843 12.336 7.87425 12.336H8.66175C8.9517 12.336 9.18675 12.5711 9.18675 12.861V13.911H11.8118V12.987C11.8161 12.9088 11.7805 12.8337 11.7173 12.7875L8.11575 9.81601C7.6319 9.41829 7.35083 8.82535 7.34925 8.19901V7.34851C7.34925 6.18871 8.28946 5.24851 9.44925 5.24851V4.72351C9.44925 4.43356 9.6843 4.19851 9.97425 4.19851H11.0243C11.3142 4.19851 11.5493 4.43356 11.5493 4.72351Z" fill="currentColor" fill-opacity="0.6"/>
</svg>
