<svg viewBox="0 0 18 18" fill="none" xmlns="http://www.w3.org/2000/svg">
<g id="rotate_right_24dp_5F6368_FILL1_wght400_GRAD0_opsz24 1">
<path id="Vector" d="M14.8121 9.03672C14.6621 9.03672 14.5152 8.98359 14.3715 8.87734C14.2277 8.77109 14.1371 8.63672 14.0996 8.47422C14.0371 8.23672 13.959 8.00234 13.8652 7.77109C13.7715 7.53984 13.6621 7.31797 13.5371 7.10547C13.4496 6.96797 13.4184 6.81484 13.4434 6.64609C13.4684 6.47734 13.5371 6.33672 13.6496 6.22422C13.8371 6.04922 14.0527 5.97422 14.2965 5.99922C14.5402 6.02422 14.7246 6.14297 14.8496 6.35547C15.0121 6.63047 15.1559 6.91172 15.2809 7.19922C15.4059 7.48672 15.5059 7.78672 15.5809 8.09922C15.6434 8.34922 15.5965 8.56797 15.4402 8.75547C15.284 8.94297 15.0746 9.03672 14.8121 9.03672ZM9.78711 15.5617C9.78711 15.4117 9.84023 15.2648 9.94648 15.1211C10.0527 14.9773 10.1871 14.8867 10.3496 14.8492C10.5871 14.7867 10.8215 14.7086 11.0527 14.6148C11.284 14.5211 11.5059 14.4117 11.7184 14.2867C11.8559 14.1992 12.009 14.168 12.1777 14.193C12.3465 14.218 12.4871 14.2867 12.5996 14.3992C12.7746 14.5867 12.8496 14.8023 12.8246 15.0461C12.7996 15.2898 12.6809 15.4742 12.4684 15.5992C12.1809 15.7617 11.8934 15.9023 11.6059 16.0211C11.3184 16.1398 11.0246 16.243 10.7246 16.3305C10.4746 16.393 10.2559 16.3492 10.0684 16.1992C9.88086 16.0492 9.78711 15.8367 9.78711 15.5617ZM13.6496 13.3492C13.5371 13.2492 13.4684 13.1117 13.4434 12.9367C13.4184 12.7617 13.4496 12.6055 13.5371 12.468C13.6621 12.2555 13.7715 12.0336 13.8652 11.8023C13.959 11.5711 14.0371 11.3367 14.0996 11.0992C14.1371 10.9367 14.2246 10.8023 14.3621 10.6961C14.4996 10.5898 14.6496 10.5367 14.8121 10.5367C15.0871 10.5367 15.2996 10.6305 15.4496 10.818C15.5996 11.0055 15.6434 11.2242 15.5809 11.4742C15.4934 11.7742 15.3902 12.068 15.2715 12.3555C15.1527 12.643 15.0121 12.9305 14.8496 13.218C14.7246 13.4305 14.5402 13.5492 14.2965 13.5742C14.0527 13.5992 13.8371 13.5242 13.6496 13.3492ZM7.36836 16.3117C5.88086 15.9117 4.66211 15.1117 3.71211 13.9117C2.76211 12.7117 2.28711 11.3367 2.28711 9.78672C2.28711 7.91172 2.94336 6.31797 4.25586 5.00547C5.56836 3.69297 7.16211 3.03672 9.03711 3.03672H9.14961L8.49336 2.38047C8.35586 2.24297 8.28711 2.06797 8.28711 1.85547C8.28711 1.64297 8.36211 1.46172 8.51211 1.31172C8.64961 1.17422 8.82461 1.10547 9.03711 1.10547C9.24961 1.10547 9.43086 1.17422 9.58086 1.31172L11.5121 3.26172C11.5871 3.33672 11.6402 3.41797 11.6715 3.50547C11.7027 3.59297 11.7184 3.68672 11.7184 3.78672C11.7184 3.88672 11.7027 3.98047 11.6715 4.06797C11.6402 4.15547 11.5871 4.23672 11.5121 4.31172L9.56211 6.26172C9.42461 6.39922 9.24961 6.46797 9.03711 6.46797C8.82461 6.46797 8.64961 6.39922 8.51211 6.26172C8.37461 6.12422 8.30586 5.94922 8.30586 5.73672C8.30586 5.52422 8.37461 5.34922 8.51211 5.21172L9.18711 4.53672H9.03711C7.57461 4.53672 6.33398 5.04609 5.31523 6.06484C4.29648 7.08359 3.78711 8.32422 3.78711 9.78672C3.78711 10.9992 4.15586 12.0711 4.89336 13.0023C5.63086 13.9336 6.57461 14.5492 7.72461 14.8492C7.88711 14.8867 8.02148 14.9742 8.12773 15.1117C8.23398 15.2492 8.28711 15.3992 8.28711 15.5617C8.28711 15.8242 8.19648 16.0305 8.01523 16.1805C7.83398 16.3305 7.61836 16.3742 7.36836 16.3117Z" fill="currentColor"/>
</g>
</svg>
