<svg viewBox="0 0 19 19" fill="none" xmlns="http://www.w3.org/2000/svg">
<path d="M5.42187 16.25C5.00937 16.25 4.65625 16.1031 4.3625 15.8094C4.06875 15.5156 3.92187 15.1625 3.92187 14.75V5C3.70937 5 3.53125 4.92813 3.3875 4.78438C3.24375 4.64063 3.17188 4.4625 3.17188 4.25C3.17188 4.0375 3.24375 3.85938 3.3875 3.71563C3.53125 3.57188 3.70937 3.5 3.92187 3.5H6.92187C6.92187 3.2875 6.99375 3.10938 7.1375 2.96563C7.28125 2.82188 7.45937 2.75 7.67187 2.75H10.6719C10.8844 2.75 11.0625 2.82188 11.2062 2.96563C11.35 3.10938 11.4219 3.2875 11.4219 3.5H14.4219C14.6344 3.5 14.8125 3.57188 14.9562 3.71563C15.1 3.85938 15.1719 4.0375 15.1719 4.25C15.1719 4.4625 15.1 4.64063 14.9562 4.78438C14.8125 4.92813 14.6344 5 14.4219 5V14.75C14.4219 15.1625 14.275 15.5156 13.9812 15.8094C13.6875 16.1031 13.3344 16.25 12.9219 16.25H5.42187ZM12.9219 5H5.42187V14.75H12.9219V5ZM7.67187 13.25C7.88437 13.25 8.0625 13.1781 8.20625 13.0344C8.35 12.8906 8.42187 12.7125 8.42187 12.5V7.25C8.42187 7.0375 8.35 6.85938 8.20625 6.71563C8.0625 6.57188 7.88437 6.5 7.67187 6.5C7.45937 6.5 7.28125 6.57188 7.1375 6.71563C6.99375 6.85938 6.92187 7.0375 6.92187 7.25V12.5C6.92187 12.7125 6.99375 12.8906 7.1375 13.0344C7.28125 13.1781 7.45937 13.25 7.67187 13.25ZM10.6719 13.25C10.8844 13.25 11.0625 13.1781 11.2062 13.0344C11.35 12.8906 11.4219 12.7125 11.4219 12.5V7.25C11.4219 7.0375 11.35 6.85938 11.2062 6.71563C11.0625 6.57188 10.8844 6.5 10.6719 6.5C10.4594 6.5 10.2812 6.57188 10.1375 6.71563C9.99375 6.85938 9.92187 7.0375 9.92187 7.25V12.5C9.92187 12.7125 9.99375 12.8906 10.1375 13.0344C10.2812 13.1781 10.4594 13.25 10.6719 13.25Z" fill="currentColor"/>
</svg>
