<svg viewBox="0 0 22 19" fill="none" xmlns="http://www.w3.org/2000/svg">
<path fill-rule="evenodd" clip-rule="evenodd" d="M12.3311 18.5C17.4398 18.5 21.5811 14.3586 21.5811 9.24998C21.5811 4.14136 17.4398 0 12.3311 0C7.22252 0 3.08117 4.14136 3.08117 9.24998H0.727561C0.588209 9.24795 0.454251 9.30377 0.357562 9.40414L0.152007 9.6097C0.0547217 9.70619 0 9.83753 0 9.97456C0 10.1116 0.0547217 10.2429 0.152007 10.3394L3.78005 13.9777C3.98336 14.1749 4.30647 14.1749 4.50977 13.9777L8.13782 10.3394C8.2351 10.2429 8.28983 10.1116 8.28983 9.97456C8.28983 9.83753 8.2351 9.70619 8.13782 9.6097L7.93226 9.40414C7.83558 9.30377 7.70162 9.24795 7.56227 9.24998H5.13672C5.13672 5.2766 8.35777 2.05555 12.3311 2.05555C16.3045 2.05555 19.5256 5.2766 19.5256 9.24998C19.5256 13.2233 16.3045 16.4444 12.3311 16.4444C10.9105 16.4481 9.52141 16.0256 8.34337 15.2316C8.14034 15.0956 7.86959 15.1214 7.69588 15.2933L6.95588 16.0436C6.8522 16.1501 6.79973 16.2963 6.81199 16.4444C6.8251 16.5965 6.90392 16.7354 7.02782 16.8247C8.57856 17.9206 10.4322 18.5062 12.3311 18.5ZM11.9409 4.1101H12.722C12.8583 4.1101 12.989 4.16424 13.0853 4.26061C13.1817 4.35698 13.2359 4.48769 13.2359 4.62398V8.87897L16.237 11.8801C16.3342 11.9766 16.389 12.1079 16.389 12.2449C16.389 12.382 16.3342 12.5133 16.237 12.6098L15.6922 13.1545C15.5957 13.2518 15.4644 13.3065 15.3274 13.3065C15.1904 13.3065 15.059 13.2518 14.9625 13.1545L11.5811 9.77314C11.487 9.67647 11.432 9.54828 11.427 9.41342V4.62398C11.427 4.34017 11.657 4.1101 11.9409 4.1101Z" fill="currentColor" fill-opacity="0.6"/>
</svg>
