<svg viewBox="0 0 21 20" fill="none" xmlns="http://www.w3.org/2000/svg">
<path d="M10.1722 9L6.9222 12.25C6.76942 12.4028 6.57498 12.4792 6.33887 12.4792C6.10276 12.4792 5.90831 12.4028 5.75553 12.25C5.60276 12.0972 5.52637 11.9028 5.52637 11.6667C5.52637 11.4306 5.60276 11.2361 5.75553 11.0833L9.58887 7.25C9.75553 7.08333 9.94998 7 10.1722 7C10.3944 7 10.5889 7.08333 10.7555 7.25L14.5889 11.0833C14.7416 11.2361 14.818 11.4306 14.818 11.6667C14.818 11.9028 14.7416 12.0972 14.5889 12.25C14.4361 12.4028 14.2416 12.4792 14.0055 12.4792C13.7694 12.4792 13.575 12.4028 13.4222 12.25L10.1722 9Z" fill="currentColor" fill-opacity="0.6"/>
</svg>
