<svg viewBox="0 0 14 14" fill="none" xmlns="http://www.w3.org/2000/svg">
<path d="M7.17155 10.334C7.36044 10.334 7.51877 10.2701 7.64655 10.1423C7.77433 10.0145 7.83822 9.85621 7.83822 9.66732C7.83822 9.47843 7.77433 9.3201 7.64655 9.19232C7.51877 9.06454 7.36044 9.00065 7.17155 9.00065C6.98266 9.00065 6.82433 9.06454 6.69655 9.19232C6.56877 9.3201 6.50488 9.47843 6.50488 9.66732C6.50488 9.85621 6.56877 10.0145 6.69655 10.1423C6.82433 10.2701 6.98266 10.334 7.17155 10.334ZM7.17155 7.66732C7.36044 7.66732 7.51877 7.60343 7.64655 7.47565C7.77433 7.34787 7.83822 7.18954 7.83822 7.00065V4.33398C7.83822 4.1451 7.77433 3.98676 7.64655 3.85898C7.51877 3.73121 7.36044 3.66732 7.17155 3.66732C6.98266 3.66732 6.82433 3.73121 6.69655 3.85898C6.56877 3.98676 6.50488 4.1451 6.50488 4.33398V7.00065C6.50488 7.18954 6.56877 7.34787 6.69655 7.47565C6.82433 7.60343 6.98266 7.66732 7.17155 7.66732ZM7.17155 13.6673C6.24933 13.6673 5.38266 13.4923 4.57155 13.1423C3.76044 12.7923 3.05488 12.3173 2.45488 11.7173C1.85488 11.1173 1.37988 10.4118 1.02988 9.60065C0.679883 8.78954 0.504883 7.92287 0.504883 7.00065C0.504883 6.07843 0.679883 5.21176 1.02988 4.40065C1.37988 3.58954 1.85488 2.88398 2.45488 2.28398C3.05488 1.68398 3.76044 1.20898 4.57155 0.858984C5.38266 0.508984 6.24933 0.333984 7.17155 0.333984C8.09377 0.333984 8.96044 0.508984 9.77155 0.858984C10.5827 1.20898 11.2882 1.68398 11.8882 2.28398C12.4882 2.88398 12.9632 3.58954 13.3132 4.40065C13.6632 5.21176 13.8382 6.07843 13.8382 7.00065C13.8382 7.92287 13.6632 8.78954 13.3132 9.60065C12.9632 10.4118 12.4882 11.1173 11.8882 11.7173C11.2882 12.3173 10.5827 12.7923 9.77155 13.1423C8.96044 13.4923 8.09377 13.6673 7.17155 13.6673Z" fill="currentColor" fill-opacity="0.6"/>
</svg>
