<svg viewBox="0 0 13 12" fill="none" xmlns="http://www.w3.org/2000/svg">
<g id="check_circle_24dp_5F6368_FILL1_wght400_GRAD0_opsz24 1">
<path id="Vector" d="M5.47188 6.9L4.39688 5.825C4.30521 5.73333 4.18854 5.6875 4.04688 5.6875C3.90521 5.6875 3.78854 5.73333 3.69688 5.825C3.60521 5.91667 3.55938 6.03333 3.55938 6.175C3.55938 6.31667 3.60521 6.43333 3.69688 6.525L5.12188 7.95C5.22188 8.05 5.33854 8.1 5.47188 8.1C5.60521 8.1 5.72188 8.05 5.82188 7.95L8.64687 5.125C8.73854 5.03333 8.78438 4.91667 8.78438 4.775C8.78438 4.63333 8.73854 4.51667 8.64687 4.425C8.55521 4.33333 8.43854 4.2875 8.29688 4.2875C8.15521 4.2875 8.03854 4.33333 7.94688 4.425L5.47188 6.9ZM6.17188 11C5.48021 11 4.83021 10.8688 4.22187 10.6062C3.61354 10.3438 3.08438 9.9875 2.63437 9.5375C2.18438 9.0875 1.82812 8.55833 1.56563 7.95C1.30313 7.34167 1.17188 6.69167 1.17188 6C1.17188 5.30833 1.30313 4.65833 1.56563 4.05C1.82812 3.44167 2.18438 2.9125 2.63437 2.4625C3.08438 2.0125 3.61354 1.65625 4.22187 1.39375C4.83021 1.13125 5.48021 1 6.17188 1C6.86354 1 7.51354 1.13125 8.12188 1.39375C8.73021 1.65625 9.25938 2.0125 9.70938 2.4625C10.1594 2.9125 10.5156 3.44167 10.7781 4.05C11.0406 4.65833 11.1719 5.30833 11.1719 6C11.1719 6.69167 11.0406 7.34167 10.7781 7.95C10.5156 8.55833 10.1594 9.0875 9.70938 9.5375C9.25938 9.9875 8.73021 10.3438 8.12188 10.6062C7.51354 10.8688 6.86354 11 6.17188 11Z" fill="#26D483"/>
</g>
</svg>
