<svg viewBox="0 0 13 12" fill="none" xmlns="http://www.w3.org/2000/svg">
<g id="cancel_24dp_5F6368_FILL1_wght400_GRAD0_opsz24 1">
<path id="Vector" d="M6.67188 7.13L7.97688 8.435C8.05938 8.5175 8.16438 8.55875 8.29188 8.55875C8.41938 8.55875 8.52438 8.5175 8.60688 8.435C8.68938 8.3525 8.73063 8.2475 8.73063 8.12C8.73063 7.9925 8.68938 7.8875 8.60688 7.805L7.30188 6.5L8.60688 5.195C8.68938 5.1125 8.73063 5.0075 8.73063 4.88C8.73063 4.7525 8.68938 4.6475 8.60688 4.565C8.52438 4.4825 8.41938 4.44125 8.29188 4.44125C8.16438 4.44125 8.05938 4.4825 7.97688 4.565L6.67188 5.87L5.36688 4.565C5.28438 4.4825 5.17938 4.44125 5.05188 4.44125C4.92438 4.44125 4.81938 4.4825 4.73688 4.565C4.65438 4.6475 4.61313 4.7525 4.61313 4.88C4.61313 5.0075 4.65438 5.1125 4.73688 5.195L6.04188 6.5L4.73688 7.805C4.65438 7.8875 4.61313 7.9925 4.61313 8.12C4.61313 8.2475 4.65438 8.3525 4.73688 8.435C4.81938 8.5175 4.92438 8.55875 5.05188 8.55875C5.17938 8.55875 5.28438 8.5175 5.36688 8.435L6.67188 7.13ZM6.67188 11C6.04938 11 5.46438 10.8819 4.91688 10.6456C4.36937 10.4094 3.89313 10.0887 3.48813 9.68375C3.08313 9.27875 2.7625 8.8025 2.52625 8.255C2.29 7.7075 2.17188 7.1225 2.17188 6.5C2.17188 5.8775 2.29 5.2925 2.52625 4.745C2.7625 4.1975 3.08313 3.72125 3.48813 3.31625C3.89313 2.91125 4.36937 2.59063 4.91688 2.35438C5.46438 2.11813 6.04938 2 6.67188 2C7.29438 2 7.87937 2.11813 8.42688 2.35438C8.97438 2.59063 9.45063 2.91125 9.85563 3.31625C10.2606 3.72125 10.5813 4.1975 10.8175 4.745C11.0538 5.2925 11.1719 5.8775 11.1719 6.5C11.1719 7.1225 11.0538 7.7075 10.8175 8.255C10.5813 8.8025 10.2606 9.27875 9.85563 9.68375C9.45063 10.0887 8.97438 10.4094 8.42688 10.6456C7.87937 10.8819 7.29438 11 6.67188 11Z" fill="#FF3D00"/>
</g>
</svg>
