<svg viewBox="0 0 13 12" fill="none" xmlns="http://www.w3.org/2000/svg">
<g id="flag_24dp_5F6368_FILL1_wght400_GRAD0_opsz24 1" opacity="0.3">
<path id="Vector" d="M3.67188 7V10C3.67188 10.1417 3.62396 10.2604 3.52812 10.3562C3.43229 10.4521 3.31354 10.5 3.17188 10.5C3.03021 10.5 2.91146 10.4521 2.81562 10.3562C2.71979 10.2604 2.67188 10.1417 2.67188 10V2.5C2.67188 2.35833 2.71979 2.23958 2.81562 2.14375C2.91146 2.04792 3.03021 2 3.17188 2H6.75938C6.87604 2 6.98021 2.0375 7.07188 2.1125C7.16354 2.1875 7.22188 2.28333 7.24688 2.4L7.37188 3H9.67188C9.81354 3 9.93229 3.04792 10.0281 3.14375C10.124 3.23958 10.1719 3.35833 10.1719 3.5V7.5C10.1719 7.64167 10.124 7.76042 10.0281 7.85625C9.93229 7.95208 9.81354 8 9.67188 8H7.08437C6.96771 8 6.86354 7.9625 6.77187 7.8875C6.68021 7.8125 6.62188 7.71667 6.59687 7.6L6.47187 7H3.67188Z" fill="currentColor"/>
</g>
</svg>
