<svg viewBox="0 0 40 40" fill="none" xmlns="http://www.w3.org/2000/svg">
<rect width="40" height="40" rx="8" fill="#FA8231"/>
<path d="M29.7875 18.9449L28.5269 18.9419L26.3244 18.9361L23.4258 18.9303L22.563 18.9273H22.1389H21.4749L16.7044 18.9156L14.929 18.9127L11.7408 18.9039L10.7639 18.901H9.84253C9.66703 18.901 9.49739 18.9244 9.33359 18.9683C9.16395 19.0121 9.006 19.0794 8.85975 19.1672C8.29232 19.4977 7.91501 20.109 7.91501 20.811L7.90331 25.8799L7.89453 29.9162C7.89453 30.2058 7.95888 30.4807 8.07295 30.7264C8.11975 30.8259 8.17532 30.9224 8.23675 31.0102C8.58189 31.5103 9.15809 31.8379 9.81035 31.8408H10.173L11.0476 31.8438L29.7583 31.8876C30.8171 31.8906 31.68 31.0336 31.6829 29.9718L31.7034 20.8636C31.7034 19.8077 30.8463 18.9478 29.7875 18.9449ZM9.33067 26.6725C9.33067 26.7807 9.24292 26.8685 9.1347 26.8655C9.07912 26.8655 9.03232 26.8451 8.99722 26.81C8.96213 26.7749 8.93873 26.7252 8.93873 26.6725L8.94458 24.0606C8.94458 23.9523 9.03232 23.8675 9.14055 23.8675C9.19319 23.8675 9.24292 23.888 9.27802 23.926C9.31312 23.9611 9.33359 24.0108 9.33359 24.0635L9.33067 26.6725ZM29.7203 30.9721L10.1233 30.9253L10.1292 27.6319L10.1438 21.4632L10.1467 19.8136L11.4717 19.8165L13.1916 19.8194L13.9784 19.8223L15.1717 19.8253L17.3566 19.8311L18.9566 19.834L22.8204 19.8428L24.2302 19.8457L28.0794 19.8545H28.1408L29.7407 19.8574L29.7203 30.9721Z" fill="white"/>
<path d="M27.9388 13.7561C27.7458 15.3209 27.1666 16.4148 26.4997 16.4792C26.2394 16.5055 25.9235 16.3768 25.7246 16.1428C25.4672 15.8386 25.4292 15.3618 25.631 14.9143C25.631 14.9143 25.631 14.9143 25.631 14.9114C25.631 14.9085 25.634 14.9085 25.634 14.9056C25.6603 14.8588 25.6866 14.809 25.7129 14.7593C26.3067 13.6391 26.8712 11.6999 25.9323 8.42102C25.8767 9.32189 25.6486 10.7054 24.6307 11.6443C23.1536 13.0073 21.2905 12.2644 19.0734 13.3992C18.1637 13.8672 16.8914 14.809 15.815 16.9325C15.7477 16.4909 15.7039 15.786 15.9262 14.9787C16.3503 13.4577 17.4413 12.6212 17.8215 12.355C16.9265 12.8084 15.6658 13.5835 14.5017 14.8763C13.5102 15.9761 12.8755 17.1343 12.4338 18.3189C12.3578 18.5237 12.2876 18.7313 12.2203 18.9361C12.1296 19.2227 12.0477 19.5123 11.9717 19.8019L13.5921 19.8048L14.3321 19.8077L15.4553 19.8106L17.5144 19.8165L19.0207 19.8194L22.6622 19.8282L23.9902 19.8311L27.6171 19.8399H27.6726C27.7428 19.6819 27.8043 19.5357 27.8627 19.3982C27.8627 19.3953 27.8628 19.3953 27.8657 19.3924C27.8657 19.3895 27.8686 19.3865 27.8715 19.3836C27.8744 19.3778 27.8774 19.3748 27.8774 19.369C27.8774 19.3661 27.8803 19.3631 27.8803 19.3602C27.9359 19.2403 27.9885 19.1116 28.0353 18.977C28.4828 17.7106 28.5472 15.8708 27.9388 13.7561Z" fill="white"/>
<path d="M13.6623 29.6114L12.5918 27.874H12.5801L12.5947 29.6114H11.9717V26.9556H12.7029L13.7676 28.69H13.7793L13.7647 26.9556H14.3877V29.6114H13.6623Z" fill="white"/>
<path d="M16.046 29.6816C15.347 29.6816 14.9141 29.2458 14.9141 28.6081V26.9526H15.5517V28.5555C15.5517 28.8392 15.6892 29.1025 16.0519 29.1025C16.4145 29.1025 16.552 28.8392 16.552 28.5555V26.9526H17.1926V28.6081C17.1896 29.2458 16.7392 29.6816 16.046 29.6816Z" fill="white"/>
<path d="M20.1176 29.6114L20.1323 27.7307H20.1206L19.4303 29.6114H18.9799L18.3071 27.7307H18.2954L18.31 29.6114H17.7046V26.9556H18.6172L19.2226 28.6579H19.2372L19.8164 26.9556H20.7436V29.6114H20.1176Z" fill="white"/>
<path d="M22.3493 29.6114H21.2905V26.9556H22.3493C22.7618 26.9556 23.2531 27.1018 23.2531 27.6371C23.2531 27.9296 23.0776 28.1255 22.8173 28.2104V28.2191C23.1215 28.2718 23.3614 28.4882 23.3614 28.8392C23.3614 29.4154 22.8554 29.6114 22.3493 29.6114ZM22.2265 27.4645H21.9106V28.0115H22.2557C22.4956 28.0115 22.636 27.9091 22.636 27.7219C22.6331 27.5435 22.4956 27.4645 22.2265 27.4645ZM22.2674 28.4853H21.9106V29.0937H22.2704C22.4722 29.0937 22.7208 29.0381 22.7208 28.7778C22.7208 28.5555 22.5395 28.4853 22.2674 28.4853Z" fill="white"/>
<path d="M23.7856 29.6114V26.9556H25.5728V27.4996H24.4057V27.9998H25.5084V28.5145H24.4057V29.0674H25.64V29.6143H23.7856V29.6114Z" fill="white"/>
<path d="M27.4855 29.6114L26.9122 28.5584H26.6958V29.6114H26.0669V26.9556H27.0789C27.5879 26.9556 28.0968 27.1515 28.0968 27.757C28.0968 28.1138 27.8862 28.3683 27.544 28.4736L28.2372 29.6114H27.4855ZM27.0321 27.4733H26.6899V28.0934H26.9941C27.2018 28.0934 27.4592 28.0407 27.4592 27.7716C27.4592 27.5201 27.2222 27.4733 27.0321 27.4733Z" fill="white"/>
<path d="M13.9314 22.516V25.8972H12.9018V22.516H11.6997V21.6385H15.1365V22.516H13.9314Z" fill="white"/>
<path d="M15.6045 25.8971V21.6384H18.468V22.5101H16.596V23.3115H18.3656V24.1363H16.596V25.0196H18.5762V25.8971H15.6045Z" fill="white"/>
<path d="M23.1187 25.8971L23.1421 22.8815H23.1245L22.016 25.8971H21.2935L20.2172 22.8815H20.1996L20.223 25.8971H19.2549V21.6384H20.7173L21.6855 24.3703H21.7089L22.6361 21.6384H24.1219V25.9H23.1187V25.8971Z" fill="white"/>
<path d="M26.5434 24.2913H26.0315V25.8971H25.002V21.6384H26.5668C27.4998 21.6384 28.234 21.9748 28.234 22.9517C28.234 23.9374 27.4355 24.2913 26.5434 24.2913ZM26.4849 22.4691H26.0344V23.4724H26.4673C26.8534 23.4724 27.2073 23.3583 27.2073 22.9546C27.2073 22.5452 26.8505 22.4691 26.4849 22.4691Z" fill="white"/>
</svg>
