<svg viewBox="0 0 18 18" fill="none" xmlns="http://www.w3.org/2000/svg">
<g id="delete_24dp_5F6368_FILL1_wght300_GRAD0_opsz24 1">
<path id="Vector" d="M5.48081 15.375C5.10794 15.375 4.78875 15.2423 4.52325 14.9768C4.25775 14.7113 4.125 14.3921 4.125 14.0192V4.50005H3.9375C3.77813 4.50005 3.64456 4.44611 3.53681 4.33823C3.42894 4.23036 3.375 4.09673 3.375 3.93736C3.375 3.77786 3.42894 3.64429 3.53681 3.53667C3.64456 3.42892 3.77813 3.37505 3.9375 3.37505H6.75C6.75 3.19142 6.81469 3.03492 6.94406 2.90555C7.07331 2.7763 7.22975 2.71167 7.41338 2.71167H10.5866C10.7703 2.71167 10.9267 2.7763 11.0559 2.90555C11.1853 3.03492 11.25 3.19142 11.25 3.37505H14.0625C14.2219 3.37505 14.3554 3.42898 14.4632 3.53686C14.5711 3.64473 14.625 3.77836 14.625 3.93773C14.625 4.09723 14.5711 4.2308 14.4632 4.33842C14.3554 4.44617 14.2219 4.50005 14.0625 4.50005H13.875V14.0192C13.875 14.3921 13.7423 14.7113 13.4768 14.9768C13.2113 15.2423 12.8921 15.375 12.5192 15.375H5.48081ZM7.61569 12.75C7.77506 12.75 7.90863 12.6962 8.01638 12.5884C8.124 12.4805 8.17781 12.3469 8.17781 12.1875V6.56255C8.17781 6.40317 8.12388 6.26955 8.016 6.16167C7.90825 6.05392 7.77463 6.00005 7.61513 6.00005C7.45575 6.00005 7.32219 6.05392 7.21444 6.16167C7.10681 6.26955 7.053 6.40317 7.053 6.56255V12.1875C7.053 12.3469 7.10688 12.4805 7.21463 12.5884C7.3225 12.6962 7.45619 12.75 7.61569 12.75ZM10.3849 12.75C10.5443 12.75 10.6778 12.6962 10.7856 12.5884C10.8932 12.4805 10.947 12.3469 10.947 12.1875V6.56255C10.947 6.40317 10.8931 6.26955 10.7854 6.16167C10.6775 6.05392 10.5438 6.00005 10.3843 6.00005C10.2249 6.00005 10.0914 6.05392 9.98363 6.16167C9.876 6.26955 9.82219 6.40317 9.82219 6.56255V12.1875C9.82219 12.3469 9.87612 12.4805 9.984 12.5884C10.0917 12.6962 10.2254 12.75 10.3849 12.75Z" fill="currentColor" fill-opacity="0.6"/>
</g>
</svg>
