<svg viewBox="0 0 18 18" fill="none" xmlns="http://www.w3.org/2000/svg">
<g id="draft_24dp_5F6368_FILL1_wght300_GRAD0_opsz24 1">
<path id="Vector" d="M4.73081 16.125C4.35194 16.125 4.03125 15.9938 3.76875 15.7313C3.50625 15.4688 3.375 15.1481 3.375 14.7692V3.23081C3.375 2.85194 3.50625 2.53125 3.76875 2.26875C4.03125 2.00625 4.35194 1.875 4.73081 1.875H10.1265C10.3073 1.875 10.4811 1.91012 10.6479 1.98037C10.8147 2.0505 10.9596 2.14713 11.0828 2.27025L14.2297 5.41725C14.3529 5.54037 14.4495 5.68531 14.5196 5.85206C14.5899 6.01894 14.625 6.19275 14.625 6.3735V14.7692C14.625 15.1481 14.4938 15.4688 14.2313 15.7313C13.9688 15.9938 13.6481 16.125 13.2692 16.125H4.73081ZM10.125 5.697C10.125 5.89038 10.1897 6.05169 10.3191 6.18094C10.4483 6.31031 10.6096 6.375 10.803 6.375H13.5L10.125 3V5.697Z" fill="currentColor" fill-opacity="0.2"/>
</g>
</svg>
