<svg viewBox="0 0 76 75" fill="none" xmlns="http://www.w3.org/2000/svg">
<g id="rotate_right_24dp_5F6368_FILL1_wght400_GRAD0_opsz24 1">
<path id="Vector" d="M62.2188 37.6562C61.5938 37.6562 60.9818 37.4349 60.3828 36.9922C59.7839 36.5495 59.4062 35.9896 59.25 35.3125C58.9896 34.3229 58.6641 33.3464 58.2734 32.3828C57.8828 31.4193 57.4271 30.4948 56.9062 29.6094C56.5417 29.0365 56.4115 28.3984 56.5156 27.6953C56.6198 26.9922 56.9062 26.4062 57.375 25.9375C58.1562 25.2083 59.0547 24.8958 60.0703 25C61.0859 25.1042 61.8542 25.599 62.375 26.4844C63.0521 27.6302 63.651 28.8021 64.1719 30C64.6927 31.1979 65.1094 32.4479 65.4219 33.75C65.6823 34.7917 65.487 35.7031 64.8359 36.4844C64.1849 37.2656 63.3125 37.6562 62.2188 37.6562ZM41.2812 64.8438C41.2812 64.2188 41.5026 63.6068 41.9453 63.0078C42.388 62.4089 42.9479 62.0312 43.625 61.875C44.6146 61.6146 45.5911 61.2891 46.5547 60.8984C47.5182 60.5078 48.4427 60.0521 49.3281 59.5312C49.901 59.1667 50.5391 59.0365 51.2422 59.1406C51.9453 59.2448 52.5312 59.5312 53 60C53.7292 60.7812 54.0417 61.6797 53.9375 62.6953C53.8333 63.7109 53.3385 64.4792 52.4531 65C51.2552 65.6771 50.0573 66.263 48.8594 66.7578C47.6615 67.2526 46.4375 67.6823 45.1875 68.0469C44.1458 68.3073 43.2344 68.125 42.4531 67.5C41.6719 66.875 41.2812 65.9896 41.2812 64.8438ZM57.375 55.625C56.9062 55.2083 56.6198 54.6354 56.5156 53.9062C56.4115 53.1771 56.5417 52.526 56.9062 51.9531C57.4271 51.0677 57.8828 50.1432 58.2734 49.1797C58.6641 48.2161 58.9896 47.2396 59.25 46.25C59.4062 45.5729 59.7708 45.013 60.3438 44.5703C60.9167 44.1276 61.5417 43.9062 62.2188 43.9062C63.3646 43.9062 64.25 44.2969 64.875 45.0781C65.5 45.8594 65.6823 46.7708 65.4219 47.8125C65.0573 49.0625 64.6276 50.2865 64.1328 51.4844C63.638 52.6823 63.0521 53.8802 62.375 55.0781C61.8542 55.9635 61.0859 56.4583 60.0703 56.5625C59.0547 56.6667 58.1562 56.3542 57.375 55.625ZM31.2031 67.9688C25.0052 66.3021 19.9271 62.9688 15.9688 57.9688C12.0104 52.9688 10.0312 47.2396 10.0312 40.7812C10.0312 32.9688 12.7656 26.3281 18.2344 20.8594C23.7031 15.3906 30.3438 12.6562 38.1562 12.6562H38.625L35.8906 9.92188C35.3177 9.34896 35.0312 8.61979 35.0312 7.73438C35.0312 6.84896 35.3438 6.09375 35.9688 5.46875C36.5417 4.89583 37.2708 4.60938 38.1562 4.60938C39.0417 4.60938 39.7969 4.89583 40.4219 5.46875L48.4688 13.5938C48.7812 13.9062 49.0026 14.2448 49.1328 14.6094C49.263 14.974 49.3281 15.3646 49.3281 15.7812C49.3281 16.1979 49.263 16.5885 49.1328 16.9531C49.0026 17.3177 48.7812 17.6562 48.4688 17.9688L40.3438 26.0938C39.7708 26.6667 39.0417 26.9531 38.1562 26.9531C37.2708 26.9531 36.5417 26.6667 35.9688 26.0938C35.3958 25.5208 35.1094 24.7917 35.1094 23.9062C35.1094 23.0208 35.3958 22.2917 35.9688 21.7188L38.7812 18.9062H38.1562C32.0625 18.9062 26.8932 21.0286 22.6484 25.2734C18.4036 29.5182 16.2812 34.6875 16.2812 40.7812C16.2812 45.8333 17.8177 50.2995 20.8906 54.1797C23.9635 58.0599 27.8958 60.625 32.6875 61.875C33.3646 62.0312 33.9245 62.3958 34.3672 62.9688C34.8099 63.5417 35.0312 64.1667 35.0312 64.8438C35.0312 65.9375 34.6536 66.7969 33.8984 67.4219C33.1432 68.0469 32.2448 68.2292 31.2031 67.9688Z" />
</g>
</svg>
