<svg viewBox="0 0 64 64" fill="none" xmlns="http://www.w3.org/2000/svg">
<path d="M21.334 50.1534C21.9011 50.1534 22.376 49.9616 22.7587 49.578C23.1418 49.1949 23.3333 48.72 23.3333 48.1534V47.5893C23.3333 47.0227 23.1416 46.5476 22.758 46.164C22.3744 45.7809 21.8993 45.5893 21.3327 45.5893C20.7656 45.5893 20.2907 45.7809 19.908 46.164C19.5249 46.5476 19.3333 47.0227 19.3333 47.5893V48.1534C19.3333 48.72 19.5251 49.1949 19.9087 49.578C20.2922 49.9616 20.7673 50.1534 21.334 50.1534ZM21.334 39.7427C21.9011 39.7427 22.376 39.5511 22.7587 39.168C23.1418 38.7845 23.3333 38.3094 23.3333 37.7427V31.8454C23.3333 31.2787 23.1416 30.8038 22.758 30.4207C22.3744 30.0371 21.8993 29.8454 21.3327 29.8454C20.7656 29.8454 20.2907 30.0371 19.908 30.4207C19.5249 30.8038 19.3333 31.2787 19.3333 31.8454V37.7427C19.3333 38.3094 19.5251 38.7845 19.9087 39.168C20.2922 39.5511 20.7673 39.7427 21.334 39.7427ZM32.0007 50.1534C32.5678 50.1534 33.0427 49.9616 33.4253 49.578C33.8084 49.1949 34 48.72 34 48.1534V42.256C34 41.6894 33.8082 41.2142 33.4247 40.8307C33.0411 40.4476 32.566 40.256 31.9993 40.256C31.4322 40.256 30.9573 40.4476 30.5747 40.8307C30.1916 41.2142 30 41.6894 30 42.256V48.1534C30 48.72 30.1918 49.1949 30.5753 49.578C30.9589 49.9616 31.434 50.1534 32.0007 50.1534ZM32.0007 34.4093C32.5678 34.4093 33.0427 34.2178 33.4253 33.8347C33.8084 33.4511 34 32.976 34 32.4093V31.8454C34 31.2787 33.8082 30.8038 33.4247 30.4207C33.0411 30.0371 32.566 29.8454 31.9993 29.8454C31.4322 29.8454 30.9573 30.0371 30.5747 30.4207C30.1916 30.8038 30 31.2787 30 31.8454V32.4093C30 32.976 30.1918 33.4511 30.5753 33.8347C30.9589 34.2178 31.434 34.4093 32.0007 34.4093ZM42.6673 50.1534C43.2344 50.1534 43.7093 49.9616 44.092 49.578C44.4751 49.1949 44.6667 48.72 44.6667 48.1534V47.5893C44.6667 47.0227 44.4749 46.5476 44.0913 46.164C43.7078 45.7809 43.2327 45.5893 42.666 45.5893C42.0989 45.5893 41.624 45.7809 41.2413 46.164C40.8582 46.5476 40.6667 47.0227 40.6667 47.5893V48.1534C40.6667 48.72 40.8584 49.1949 41.242 49.578C41.6256 49.9616 42.1007 50.1534 42.6673 50.1534ZM42.6673 39.7427C43.2344 39.7427 43.7093 39.5511 44.092 39.168C44.4751 38.7845 44.6667 38.3094 44.6667 37.7427V31.8454C44.6667 31.2787 44.4749 30.8038 44.0913 30.4207C43.7078 30.0371 43.2327 29.8454 42.666 29.8454C42.0989 29.8454 41.624 30.0371 41.2413 30.4207C40.8582 30.8038 40.6667 31.2787 40.6667 31.8454V37.7427C40.6667 38.3094 40.8584 38.7845 41.242 39.168C41.6256 39.5511 42.1007 39.7427 42.6673 39.7427ZM16.8207 57.3327C15.4736 57.3327 14.3333 56.866 13.4 55.9327C12.4667 54.9994 12 53.8591 12 52.512V23.892C12 23.2414 12.1249 22.6213 12.3747 22.032C12.624 21.4427 12.9676 20.9294 13.4053 20.492L25.826 8.07135C26.2633 7.63357 26.7767 7.29002 27.366 7.04068C27.9553 6.7909 28.5753 6.66602 29.226 6.66602H47.1793C48.5264 6.66602 49.6667 7.13268 50.6 8.06602C51.5333 8.99935 52 10.1396 52 11.4867V52.512C52 53.8591 51.5333 54.9994 50.6 55.9327C49.6667 56.866 48.5264 57.3327 47.1793 57.3327H16.8207Z" fill="#D0D7DF"/>
<path d="M22.7587 49.578C22.376 49.9616 21.9011 50.1534 21.334 50.1534C20.7673 50.1534 20.2922 49.9616 19.9087 49.578C19.5251 49.1949 19.3333 48.72 19.3333 48.1534V47.5893C19.3333 47.0227 19.5249 46.5476 19.908 46.164C20.2907 45.7809 20.7656 45.5893 21.3327 45.5893C21.8993 45.5893 22.3744 45.7809 22.758 46.164C23.1416 46.5476 23.3333 47.0227 23.3333 47.5893V48.1534C23.3333 48.72 23.1418 49.1949 22.7587 49.578Z" fill="#768BA0"/>
<path d="M22.7587 39.168C22.376 39.5511 21.9011 39.7427 21.334 39.7427C20.7673 39.7427 20.2922 39.5511 19.9087 39.168C19.5251 38.7845 19.3333 38.3094 19.3333 37.7427V31.8454C19.3333 31.2787 19.5249 30.8038 19.908 30.4207C20.2907 30.0371 20.7656 29.8454 21.3327 29.8454C21.8993 29.8454 22.3744 30.0371 22.758 30.4207C23.1416 30.8038 23.3333 31.2787 23.3333 31.8454V37.7427C23.3333 38.3094 23.1418 38.7845 22.7587 39.168Z" fill="#768BA0"/>
<path d="M33.4253 49.578C33.0427 49.9616 32.5678 50.1534 32.0007 50.1534C31.434 50.1534 30.9589 49.9616 30.5753 49.578C30.1918 49.1949 30 48.72 30 48.1534V42.256C30 41.6894 30.1916 41.2142 30.5747 40.8307C30.9573 40.4476 31.4322 40.256 31.9993 40.256C32.566 40.256 33.0411 40.4476 33.4247 40.8307C33.8082 41.2142 34 41.6894 34 42.256V48.1534C34 48.72 33.8084 49.1949 33.4253 49.578Z" fill="#768BA0"/>
<path d="M33.4253 33.8347C33.0427 34.2178 32.5678 34.4093 32.0007 34.4093C31.434 34.4093 30.9589 34.2178 30.5753 33.8347C30.1918 33.4511 30 32.976 30 32.4093V31.8454C30 31.2787 30.1916 30.8038 30.5747 30.4207C30.9573 30.0371 31.4322 29.8454 31.9993 29.8454C32.566 29.8454 33.0411 30.0371 33.4247 30.4207C33.8082 30.8038 34 31.2787 34 31.8454V32.4093C34 32.976 33.8084 33.4511 33.4253 33.8347Z" fill="#768BA0"/>
<path d="M44.092 49.578C43.7093 49.9616 43.2344 50.1534 42.6673 50.1534C42.1007 50.1534 41.6256 49.9616 41.242 49.578C40.8584 49.1949 40.6667 48.72 40.6667 48.1534V47.5893C40.6667 47.0227 40.8582 46.5476 41.2413 46.164C41.624 45.7809 42.0989 45.5893 42.666 45.5893C43.2327 45.5893 43.7078 45.7809 44.0913 46.164C44.4749 46.5476 44.6667 47.0227 44.6667 47.5893V48.1534C44.6667 48.72 44.4751 49.1949 44.092 49.578Z" fill="#768BA0"/>
<path d="M44.092 39.168C43.7093 39.5511 43.2344 39.7427 42.6673 39.7427C42.1007 39.7427 41.6256 39.5511 41.242 39.168C40.8584 38.7845 40.6667 38.3094 40.6667 37.7427V31.8454C40.6667 31.2787 40.8582 30.8038 41.2413 30.4207C41.624 30.0371 42.0989 29.8454 42.666 29.8454C43.2327 29.8454 43.7078 30.0371 44.0913 30.4207C44.4749 30.8038 44.6667 31.2787 44.6667 31.8454V37.7427C44.6667 38.3094 44.4751 38.7845 44.092 39.168Z" fill="#768BA0"/>
<rect x="6.5" y="57" width="72" height="3" rx="1.5" transform="rotate(-45 6.5 57)" fill="#A4B0C0"/>
</svg>
