<svg viewBox="0 0 64 64" fill="none" xmlns="http://www.w3.org/2000/svg">
<g id="flag_24dp_5F6368_FILL1_wght400_GRAD0_opsz24 1" opacity="0.3">
<path id="Vector" d="M18.6673 37.3327V53.3327C18.6673 54.0882 18.4118 54.7216 17.9007 55.2327C17.3895 55.7438 16.7562 55.9993 16.0007 55.9993C15.2451 55.9993 14.6118 55.7438 14.1007 55.2327C13.5895 54.7216 13.334 54.0882 13.334 53.3327V13.3327C13.334 12.5771 13.5895 11.9438 14.1007 11.4327C14.6118 10.9216 15.2451 10.666 16.0007 10.666H35.134C35.7562 10.666 36.3118 10.866 36.8007 11.266C37.2895 11.666 37.6007 12.1771 37.734 12.7993L38.4007 15.9993H50.6673C51.4229 15.9993 52.0562 16.2549 52.5673 16.766C53.0784 17.2771 53.334 17.9105 53.334 18.666V39.9993C53.334 40.7549 53.0784 41.3882 52.5673 41.8993C52.0562 42.4105 51.4229 42.666 50.6673 42.666H36.8673C36.2451 42.666 35.6895 42.466 35.2007 42.066C34.7118 41.666 34.4007 41.1549 34.2673 40.5327L33.6007 37.3327H18.6673Z" fill="currentColor"/>
</g>
</svg>
