<svg viewBox="0 0 65 64" fill="none" xmlns="http://www.w3.org/2000/svg">
<path d="M14.6547 54.6673C13.3075 54.6673 12.1673 54.2006 11.234 53.2673C10.3007 52.334 9.83398 51.1938 9.83398 49.8466V14.1547C9.83398 12.8075 10.3007 11.6673 11.234 10.734C12.1673 9.80065 13.3075 9.33398 14.6547 9.33398H50.3466C51.6938 9.33398 52.834 9.80065 53.7673 10.734C54.7006 11.6673 55.1673 12.8075 55.1673 14.1547V16.0007H35.988C33.3453 16.0007 31.2147 16.8102 29.596 18.4293C27.9769 20.048 27.1673 22.1786 27.1673 24.8213V39.18C27.1673 41.8227 27.9769 43.9533 29.596 45.572C31.2147 47.1911 33.3453 48.0006 35.988 48.0006H55.1673V49.8466C55.1673 51.1938 54.7006 52.334 53.7673 53.2673C52.834 54.2006 51.6938 54.6673 50.3466 54.6673H14.6547ZM35.988 44.0006C34.6409 44.0006 33.5007 43.534 32.5673 42.6007C31.634 41.6673 31.1673 40.5271 31.1673 39.18V24.8213C31.1673 23.4742 31.634 22.334 32.5673 21.4007C33.5007 20.4673 34.6409 20.0007 35.988 20.0007H53.0133C54.3604 20.0007 55.5007 20.4673 56.434 21.4007C57.3673 22.334 57.834 23.4742 57.834 24.8213V39.18C57.834 40.5271 57.3673 41.6673 56.434 42.6007C55.5007 43.534 54.3604 44.0006 53.0133 44.0006H35.988ZM43.1673 36.0006C44.3229 36.0006 45.2784 35.6229 46.034 34.8673C46.7895 34.1118 47.1673 33.1562 47.1673 32.0007C47.1673 30.8451 46.7895 29.8895 46.034 29.134C45.2784 28.3784 44.3229 28.0007 43.1673 28.0007C42.0118 28.0007 41.0562 28.3784 40.3007 29.134C39.5451 29.8895 39.1673 30.8451 39.1673 32.0007C39.1673 33.1562 39.5451 34.1118 40.3007 34.8673C41.0562 35.6229 42.0118 36.0006 43.1673 36.0006Z" fill="#D0D7DF"/>
<path d="M32.5673 42.6007C33.5007 43.534 34.6409 44.0006 35.988 44.0006H53.0133C54.3604 44.0006 55.5007 43.534 56.434 42.6007C57.3673 41.6673 57.834 40.5271 57.834 39.18V24.8213C57.834 23.4742 57.3673 22.334 56.434 21.4007C55.5007 20.4673 54.3604 20.0007 53.0133 20.0007H35.988C34.6409 20.0007 33.5007 20.4673 32.5673 21.4007C31.634 22.334 31.1673 23.4742 31.1673 24.8213V39.18C31.1673 40.5271 31.634 41.6673 32.5673 42.6007Z" fill="#768BA0"/>
<rect x="7" y="57" width="72" height="3" rx="1.5" transform="rotate(-45 7 57)" fill="#A4B0C0"/>
<circle cx="44.5" cy="32.5" r="4.5" fill="white"/>
</svg>
