<svg viewBox="0 0 24 24" fill="none" xmlns="http://www.w3.org/2000/svg">
<g id="keyboard_arrow_up_24dp_5F6368_FILL1_wght400_GRAD0_opsz24 1">
<path id="Vector" d="M12.0008 10.8004L8.10078 14.7004C7.91745 14.8837 7.68411 14.9754 7.40078 14.9754C7.11745 14.9754 6.88411 14.8837 6.70078 14.7004C6.51745 14.5171 6.42578 14.2837 6.42578 14.0004C6.42578 13.7171 6.51745 13.4837 6.70078 13.3004L11.3008 8.70039C11.5008 8.50039 11.7341 8.40039 12.0008 8.40039C12.2674 8.40039 12.5008 8.50039 12.7008 8.70039L17.3008 13.3004C17.4841 13.4837 17.5758 13.7171 17.5758 14.0004C17.5758 14.2837 17.4841 14.5171 17.3008 14.7004C17.1174 14.8837 16.8841 14.9754 16.6008 14.9754C16.3174 14.9754 16.0841 14.8837 15.9008 14.7004L12.0008 10.8004Z" fill="currentColor"/>
</g>
</svg>
