<svg viewBox="0 0 16 16" fill="none" xmlns="http://www.w3.org/2000/svg">
<g id="help_24dp_5F6368_FILL1_wght400_GRAD0_opsz24 (1) 1">
<path id="Vector" d="M7.96732 12.0007C8.20065 12.0007 8.39787 11.9201 8.55898 11.759C8.7201 11.5979 8.80065 11.4007 8.80065 11.1673C8.80065 10.934 8.7201 10.7368 8.55898 10.5757C8.39787 10.4145 8.20065 10.334 7.96732 10.334C7.73398 10.334 7.53676 10.4145 7.37565 10.5757C7.21454 10.7368 7.13398 10.934 7.13398 11.1673C7.13398 11.4007 7.21454 11.5979 7.37565 11.759C7.53676 11.9201 7.73398 12.0007 7.96732 12.0007ZM8.00065 14.6673C7.07843 14.6673 6.21176 14.4923 5.40065 14.1423C4.58954 13.7923 3.88398 13.3173 3.28398 12.7173C2.68398 12.1173 2.20898 11.4118 1.85898 10.6007C1.50898 9.78954 1.33398 8.92287 1.33398 8.00065C1.33398 7.07843 1.50898 6.21176 1.85898 5.40065C2.20898 4.58954 2.68398 3.88398 3.28398 3.28398C3.88398 2.68398 4.58954 2.20898 5.40065 1.85898C6.21176 1.50898 7.07843 1.33398 8.00065 1.33398C8.92287 1.33398 9.78954 1.50898 10.6007 1.85898C11.4118 2.20898 12.1173 2.68398 12.7173 3.28398C13.3173 3.88398 13.7923 4.58954 14.1423 5.40065C14.4923 6.21176 14.6673 7.07843 14.6673 8.00065C14.6673 8.92287 14.4923 9.78954 14.1423 10.6007C13.7923 11.4118 13.3173 12.1173 12.7173 12.7173C12.1173 13.3173 11.4118 13.7923 10.6007 14.1423C9.78954 14.4923 8.92287 14.6673 8.00065 14.6673ZM8.06732 5.13398C8.3451 5.13398 8.58676 5.22287 8.79232 5.40065C8.99787 5.57843 9.10065 5.80065 9.10065 6.06732C9.10065 6.31176 9.02565 6.52843 8.87565 6.71732C8.72565 6.90621 8.55621 7.08398 8.36732 7.25065C8.11176 7.47287 7.88676 7.71732 7.69232 7.98398C7.49787 8.25065 7.40065 8.55065 7.40065 8.88398C7.40065 9.03954 7.45898 9.17009 7.57565 9.27565C7.69232 9.38121 7.82843 9.43398 7.98398 9.43398C8.15065 9.43398 8.29232 9.37843 8.40898 9.26732C8.52565 9.15621 8.60065 9.01732 8.63398 8.85065C8.67843 8.61732 8.77843 8.40898 8.93398 8.22565C9.08954 8.04232 9.25621 7.86732 9.43398 7.70065C9.68954 7.45621 9.90898 7.18954 10.0923 6.90065C10.2757 6.61176 10.3673 6.28954 10.3673 5.93398C10.3673 5.36732 10.1368 4.90343 9.67565 4.54232C9.21454 4.18121 8.67843 4.00065 8.06732 4.00065C7.64509 4.00065 7.24232 4.08954 6.85898 4.26732C6.47565 4.4451 6.18398 4.71732 5.98398 5.08398C5.90621 5.21732 5.88121 5.35898 5.90898 5.50898C5.93676 5.65898 6.01176 5.77287 6.13398 5.85065C6.28954 5.93954 6.45065 5.96732 6.61732 5.93398C6.78398 5.90065 6.92287 5.80621 7.03398 5.65065C7.15621 5.48398 7.30898 5.35621 7.49232 5.26732C7.67565 5.17843 7.86732 5.13398 8.06732 5.13398Z" fill="currentColor" fill-opacity="0.6"/>
</g>
</svg>
