<svg viewBox="0 0 12 12" fill="none" xmlns="http://www.w3.org/2000/svg">
<g id="visibility_24dp_5F6368_FILL1_wght400_GRAD0_opsz24 1">
<path id="Vector" d="M6 6.7L7.45 8.15C7.54167 8.24167 7.65833 8.2875 7.8 8.2875C7.94167 8.2875 8.05833 8.24167 8.15 8.15C8.24167 8.05833 8.2875 7.94167 8.2875 7.8C8.2875 7.65833 8.24167 7.54167 8.15 7.45L6.7 6L8.15 4.55C8.24167 4.45833 8.2875 4.34167 8.2875 4.2C8.2875 4.05833 8.24167 3.94167 8.15 3.85C8.05833 3.75833 7.94167 3.7125 7.8 3.7125C7.65833 3.7125 7.54167 3.75833 7.45 3.85L6 5.3L4.55 3.85C4.45833 3.75833 4.34167 3.7125 4.2 3.7125C4.05833 3.7125 3.94167 3.75833 3.85 3.85C3.75833 3.94167 3.7125 4.05833 3.7125 4.2C3.7125 4.34167 3.75833 4.45833 3.85 4.55L5.3 6L3.85 7.45C3.75833 7.54167 3.7125 7.65833 3.7125 7.8C3.7125 7.94167 3.75833 8.05833 3.85 8.15C3.94167 8.24167 4.05833 8.2875 4.2 8.2875C4.34167 8.2875 4.45833 8.24167 4.55 8.15L6 6.7ZM6 11C5.30833 11 4.65833 10.8688 4.05 10.6062C3.44167 10.3438 2.9125 9.9875 2.4625 9.5375C2.0125 9.0875 1.65625 8.55833 1.39375 7.95C1.13125 7.34167 1 6.69167 1 6C1 5.30833 1.13125 4.65833 1.39375 4.05C1.65625 3.44167 2.0125 2.9125 2.4625 2.4625C2.9125 2.0125 3.44167 1.65625 4.05 1.39375C4.65833 1.13125 5.30833 1 6 1C6.69167 1 7.34167 1.13125 7.95 1.39375C8.55833 1.65625 9.0875 2.0125 9.5375 2.4625C9.9875 2.9125 10.3438 3.44167 10.6062 4.05C10.8688 4.65833 11 5.30833 11 6C11 6.69167 10.8688 7.34167 10.6062 7.95C10.3438 8.55833 9.9875 9.0875 9.5375 9.5375C9.0875 9.9875 8.55833 10.3438 7.95 10.6062C7.34167 10.8688 6.69167 11 6 11Z" fill="currentColor"/>
</g>
</svg>
