<svg viewBox="0 0 12 12" fill="none" xmlns="http://www.w3.org/2000/svg">
<g id="visibility_24dp_5F6368_FILL1_wght400_GRAD0_opsz24 1">
<path id="Vector" d="M5.99922 8C6.62422 8 7.15547 7.78125 7.59297 7.34375C8.03047 6.90625 8.24922 6.375 8.24922 5.75C8.24922 5.125 8.03047 4.59375 7.59297 4.15625C7.15547 3.71875 6.62422 3.5 5.99922 3.5C5.37422 3.5 4.84297 3.71875 4.40547 4.15625C3.96797 4.59375 3.74922 5.125 3.74922 5.75C3.74922 6.375 3.96797 6.90625 4.40547 7.34375C4.84297 7.78125 5.37422 8 5.99922 8ZM5.99922 7.1C5.62422 7.1 5.30547 6.96875 5.04297 6.70625C4.78047 6.44375 4.64922 6.125 4.64922 5.75C4.64922 5.375 4.78047 5.05625 5.04297 4.79375C5.30547 4.53125 5.62422 4.4 5.99922 4.4C6.37422 4.4 6.69297 4.53125 6.95547 4.79375C7.21797 5.05625 7.34922 5.375 7.34922 5.75C7.34922 6.125 7.21797 6.44375 6.95547 6.70625C6.69297 6.96875 6.37422 7.1 5.99922 7.1ZM5.99922 9.5C4.88255 9.5 3.8638 9.2 2.94297 8.6C2.02214 8 1.29505 7.20833 0.761719 6.225C0.720052 6.15 0.688802 6.07292 0.667969 5.99375C0.647135 5.91458 0.636719 5.83333 0.636719 5.75C0.636719 5.66667 0.647135 5.58542 0.667969 5.50625C0.688802 5.42708 0.720052 5.35 0.761719 5.275C1.29505 4.29167 2.02214 3.5 2.94297 2.9C3.8638 2.3 4.88255 2 5.99922 2C7.11589 2 8.13464 2.3 9.05547 2.9C9.9763 3.5 10.7034 4.29167 11.2367 5.275C11.2784 5.35 11.3096 5.42708 11.3305 5.50625C11.3513 5.58542 11.3617 5.66667 11.3617 5.75C11.3617 5.83333 11.3513 5.91458 11.3305 5.99375C11.3096 6.07292 11.2784 6.15 11.2367 6.225C10.7034 7.20833 9.9763 8 9.05547 8.6C8.13464 9.2 7.11589 9.5 5.99922 9.5Z" fill="currentColor"/>
</g>
</svg>
