<svg viewBox="0 0 24 24" fill="none" xmlns="http://www.w3.org/2000/svg">
<g id="keyboard_arrow_down_24dp_5F6368_FILL1_wght400_GRAD0_opsz24 1">
<path id="Vector" d="M12.0008 14.9758C11.8674 14.9758 11.7424 14.9549 11.6258 14.9133C11.5091 14.8716 11.4008 14.8008 11.3008 14.7008L6.70078 10.1008C6.51745 9.91745 6.42578 9.68411 6.42578 9.40078C6.42578 9.11745 6.51745 8.88411 6.70078 8.70078C6.88411 8.51745 7.11745 8.42578 7.40078 8.42578C7.68411 8.42578 7.91745 8.51745 8.10078 8.70078L12.0008 12.6008L15.9008 8.70078C16.0841 8.51745 16.3174 8.42578 16.6008 8.42578C16.8841 8.42578 17.1174 8.51745 17.3008 8.70078C17.4841 8.88411 17.5758 9.11745 17.5758 9.40078C17.5758 9.68411 17.4841 9.91745 17.3008 10.1008L12.7008 14.7008C12.6008 14.8008 12.4924 14.8716 12.3758 14.9133C12.2591 14.9549 12.1341 14.9758 12.0008 14.9758Z" fill="currentColor"/>
</g>
</svg>
