<svg viewBox="0 0 25 24" fill="none" xmlns="http://www.w3.org/2000/svg">
<g id="chevron_right_24dp_5F6368_FILL1_wght300_GRAD0_opsz24 1">
<path id="Vector" d="M13.1181 12.0005L9.04489 7.9275C8.90655 7.789 8.83572 7.61492 8.83239 7.40525C8.82922 7.19575 8.90005 7.0185 9.04489 6.8735C9.18989 6.72867 9.36555 6.65625 9.57189 6.65625C9.77822 6.65625 9.95389 6.72867 10.0989 6.8735L14.5931 11.3678C14.6866 11.4614 14.7526 11.5602 14.7911 11.664C14.8296 11.7678 14.8489 11.88 14.8489 12.0005C14.8489 12.121 14.8296 12.2332 14.7911 12.337C14.7526 12.4408 14.6866 12.5396 14.5931 12.6333L10.0989 17.1275C9.96039 17.2658 9.7863 17.3367 9.57664 17.34C9.36714 17.3432 9.18989 17.2723 9.04489 17.1275C8.90005 16.9825 8.82764 16.8068 8.82764 16.6005C8.82764 16.3942 8.90005 16.2185 9.04489 16.0735L13.1181 12.0005Z" fill="currentColor"/>
</g>
</svg>
