<svg viewBox="0 0 10 10" fill="none" xmlns="http://www.w3.org/2000/svg">
<path d="M9.8752 8.70008C9.95408 8.77832 9.99845 8.88481 9.99845 8.99591C9.99845 9.10701 9.95408 9.21351 9.8752 9.29175L9.29187 9.87508C9.21363 9.95396 9.10713 9.99833 8.99604 9.99833C8.88494 9.99833 8.77844 9.95396 8.7002 9.87508L5.0002 6.17508L1.3002 9.87508C1.22197 9.95396 1.11547 9.99833 1.00437 9.99833C0.89327 9.99833 0.786772 9.95396 0.708536 9.87508L0.125202 9.29175C0.0463222 9.21351 0.00195312 9.10701 0.00195312 8.99591C0.00195312 8.88481 0.0463222 8.77832 0.125202 8.70008L3.8252 5.00008L0.125202 1.30008C0.0463222 1.22184 0.00195313 1.11535 0.00195313 1.00425C0.00195313 0.893148 0.0463222 0.78665 0.125202 0.708414L0.708536 0.12508C0.786772 0.0462001 0.89327 0.00183105 1.00437 0.00183105C1.11547 0.00183105 1.22197 0.0462001 1.3002 0.12508L5.0002 3.82508L8.7002 0.12508C8.77844 0.0462001 8.88494 0.00183105 8.99604 0.00183105C9.10713 0.00183105 9.21363 0.0462001 9.29187 0.12508L9.8752 0.708414C9.95408 0.78665 9.99845 0.893148 9.99845 1.00425C9.99845 1.11535 9.95408 1.22184 9.8752 1.30008L6.1752 5.00008L9.8752 8.70008Z" fill="currentColor"/>
</svg>
