<svg viewBox="0 0 16 16" fill="none" xmlns="http://www.w3.org/2000/svg">
<path fill-rule="evenodd" clip-rule="evenodd" d="M12.0007 10.6663V2.66634C12.0007 1.92996 11.4037 1.33301 10.6673 1.33301H2.66732C1.93094 1.33301 1.33398 1.92996 1.33398 2.66634V10.6663C1.33398 11.4027 1.93094 11.9997 2.66732 11.9997H10.6673C11.4037 11.9997 12.0007 11.4027 12.0007 10.6663ZM2.66732 2.66634H10.6673V10.6663H2.66732V2.66634ZM13.334 11.9997V3.99967C14.0704 3.99967 14.6673 4.59663 14.6673 5.33301V11.9997C14.6673 13.4724 13.4734 14.6663 12.0007 14.6663H5.33398C4.5976 14.6663 4.00065 14.0694 4.00065 13.333H12.0007C12.737 13.333 13.334 12.7361 13.334 11.9997Z"/>
</svg>
