<svg xmlns="http://www.w3.org/2000/svg" width="24" height="24" viewBox="0 0 24 24" fill="none">
    <g opacity="0.2">
        <path d="M12.6008 12.0008L8.70078 8.10078C8.51745 7.91745 8.42578 7.68411 8.42578 7.40078C8.42578 7.11745 8.51745 6.88411 8.70078 6.70078C8.88411 6.51745 9.11745 6.42578 9.40078 6.42578C9.68411 6.42578 9.91745 6.51745 10.1008 6.70078L14.7008 11.3008C14.8008 11.4008 14.8716 11.5091 14.9133 11.6258C14.9549 11.7424 14.9758 11.8674 14.9758 12.0008C14.9758 12.1341 14.9549 12.2591 14.9133 12.3758C14.8716 12.4924 14.8008 12.6008 14.7008 12.7008L10.1008 17.3008C9.91745 17.4841 9.68411 17.5758 9.40078 17.5758C9.11745 17.5758 8.88411 17.4841 8.70078 17.3008C8.51745 17.1174 8.42578 16.8841 8.42578 16.6008C8.42578 16.3174 8.51745 16.0841 8.70078 15.9008L12.6008 12.0008Z" fill="#334155"/>
    </g>
</svg>
