<svg viewBox="0 0 25 24" fill="none" xmlns="http://www.w3.org/2000/svg">
<g id="help_24dp_5F6368_FILL1_wght400_GRAD0_opsz24 (2) 2" opacity="0.21">
<path id="Vector" d="M11.96 16.8C12.24 16.8 12.4767 16.7033 12.67 16.51C12.8633 16.3167 12.96 16.08 12.96 15.8C12.96 15.52 12.8633 15.2833 12.67 15.09C12.4767 14.8967 12.24 14.8 11.96 14.8C11.68 14.8 11.4433 14.8967 11.25 15.09C11.0567 15.2833 10.96 15.52 10.96 15.8C10.96 16.08 11.0567 16.3167 11.25 16.51C11.4433 16.7033 11.68 16.8 11.96 16.8ZM12 20C10.8933 20 9.85333 19.79 8.88 19.37C7.90667 18.95 7.06 18.38 6.34 17.66C5.62 16.94 5.05 16.0933 4.63 15.12C4.21 14.1467 4 13.1067 4 12C4 10.8933 4.21 9.85333 4.63 8.88C5.05 7.90667 5.62 7.06 6.34 6.34C7.06 5.62 7.90667 5.05 8.88 4.63C9.85333 4.21 10.8933 4 12 4C13.1067 4 14.1467 4.21 15.12 4.63C16.0933 5.05 16.94 5.62 17.66 6.34C18.38 7.06 18.95 7.90667 19.37 8.88C19.79 9.85333 20 10.8933 20 12C20 13.1067 19.79 14.1467 19.37 15.12C18.95 16.0933 18.38 16.94 17.66 17.66C16.94 18.38 16.0933 18.95 15.12 19.37C14.1467 19.79 13.1067 20 12 20ZM12.08 8.56C12.4133 8.56 12.7033 8.66667 12.95 8.88C13.1967 9.09333 13.32 9.36 13.32 9.68C13.32 9.97333 13.23 10.2333 13.05 10.46C12.87 10.6867 12.6667 10.9 12.44 11.1C12.1333 11.3667 11.8633 11.66 11.63 11.98C11.3967 12.3 11.28 12.66 11.28 13.06C11.28 13.2467 11.35 13.4033 11.49 13.53C11.63 13.6567 11.7933 13.72 11.98 13.72C12.18 13.72 12.35 13.6533 12.49 13.52C12.63 13.3867 12.72 13.22 12.76 13.02C12.8133 12.74 12.9333 12.49 13.12 12.27C13.3067 12.05 13.5067 11.84 13.72 11.64C14.0267 11.3467 14.29 11.0267 14.51 10.68C14.73 10.3333 14.84 9.94667 14.84 9.52C14.84 8.84 14.5633 8.28333 14.01 7.85C13.4567 7.41667 12.8133 7.2 12.08 7.2C11.5733 7.2 11.09 7.30667 10.63 7.52C10.17 7.73333 9.82 8.06 9.58 8.5C9.48667 8.66 9.45667 8.83 9.49 9.01C9.52333 9.19 9.61333 9.32667 9.76 9.42C9.94667 9.52667 10.14 9.56 10.34 9.52C10.54 9.48 10.7067 9.36667 10.84 9.18C10.9867 8.98 11.17 8.82667 11.39 8.72C11.61 8.61333 11.84 8.56 12.08 8.56Z" fill="currentColor"/>
</g>
</svg>
