<svg viewBox="0 0 25 24" fill="none" xmlns="http://www.w3.org/2000/svg">
<g id="autorenew_24dp_5F6368_FILL1_wght400_GRAD0_opsz24 1" opacity="0.5">
<path id="Vector" d="M6.17188 12.0508C6.17188 12.3174 6.18854 12.5799 6.22187 12.8383C6.25521 13.0966 6.31354 13.3508 6.39688 13.6008C6.48021 13.8841 6.47187 14.1549 6.37188 14.4133C6.27188 14.6716 6.09688 14.8591 5.84688 14.9758C5.58021 15.1091 5.31771 15.1216 5.05937 15.0133C4.80104 14.9049 4.63021 14.7091 4.54688 14.4258C4.41354 14.0424 4.31771 13.6508 4.25937 13.2508C4.20104 12.8508 4.17188 12.4508 4.17188 12.0508C4.17188 9.81745 4.94688 7.91745 6.49688 6.35078C8.04688 4.78411 9.93854 4.00078 12.1719 4.00078H12.3469L11.4469 3.10078C11.2635 2.91745 11.1719 2.68411 11.1719 2.40078C11.1719 2.11745 11.2635 1.88411 11.4469 1.70078C11.6302 1.51745 11.8635 1.42578 12.1469 1.42578C12.4302 1.42578 12.6635 1.51745 12.8469 1.70078L15.4469 4.30078C15.6469 4.50078 15.7469 4.73411 15.7469 5.00078C15.7469 5.26745 15.6469 5.50078 15.4469 5.70078L12.8469 8.30078C12.6635 8.48411 12.4302 8.57578 12.1469 8.57578C11.8635 8.57578 11.6302 8.48411 11.4469 8.30078C11.2635 8.11745 11.1719 7.88411 11.1719 7.60078C11.1719 7.31745 11.2635 7.08411 11.4469 6.90078L12.3469 6.00078H12.1719C10.5052 6.00078 9.08854 6.58828 7.92188 7.76328C6.75521 8.93828 6.17188 10.3674 6.17188 12.0508ZM18.1719 11.9508C18.1719 11.6841 18.1552 11.4216 18.1219 11.1633C18.0885 10.9049 18.0302 10.6508 17.9469 10.4008C17.8635 10.1174 17.8719 9.84661 17.9719 9.58828C18.0719 9.32995 18.2469 9.14245 18.4969 9.02578C18.7635 8.89245 19.026 8.87995 19.2844 8.98828C19.5427 9.09661 19.7135 9.29245 19.7969 9.57578C19.9302 9.95912 20.026 10.3508 20.0844 10.7508C20.1427 11.1508 20.1719 11.5508 20.1719 11.9508C20.1719 14.1841 19.3969 16.0841 17.8469 17.6508C16.2969 19.2174 14.4052 20.0008 12.1719 20.0008H11.9969L12.8969 20.9008C13.0802 21.0841 13.1719 21.3174 13.1719 21.6008C13.1719 21.8841 13.0802 22.1174 12.8969 22.3008C12.7135 22.4841 12.4802 22.5758 12.1969 22.5758C11.9135 22.5758 11.6802 22.4841 11.4969 22.3008L8.89687 19.7008C8.69688 19.5008 8.59688 19.2674 8.59688 19.0008C8.59688 18.7341 8.69688 18.5008 8.89687 18.3008L11.4969 15.7008C11.6802 15.5174 11.9135 15.4258 12.1969 15.4258C12.4802 15.4258 12.7135 15.5174 12.8969 15.7008C13.0802 15.8841 13.1719 16.1174 13.1719 16.4008C13.1719 16.6841 13.0802 16.9174 12.8969 17.1008L11.9969 18.0008H12.1719C13.8385 18.0008 15.2552 17.4133 16.4219 16.2383C17.5885 15.0633 18.1719 13.6341 18.1719 11.9508Z" fill="currentColor"/>
</g>
</svg>
