<svg width="24" height="24" viewBox="0 0 24 24" fill="none" xmlns="http://www.w3.org/2000/svg">
<path d="M6.39286 3C5.27427 3 4.35714 3.9357 4.35714 5.07692V8.53846H5.71429V5.07692C5.71429 4.6875 6.01116 4.38462 6.39286 4.38462H19.9643C20.346 4.38462 20.6429 4.6875 20.6429 5.07692V18.9231C20.6429 19.3125 20.346 19.6154 19.9643 19.6154H6.39286C6.01116 19.6154 5.71429 19.3125 5.71429 18.9231V15.4615H4.35714V18.9231C4.35714 20.0643 5.27427 21 6.39286 21H19.9643C21.0829 21 22 20.0643 22 18.9231V5.07692C22 3.9357 21.0829 3 19.9643 3H6.39286ZM12.1289 7.1863L11.1747 8.15986L14.2547 11.3077H3V12.6923H14.2547L11.1747 15.8347L12.1289 16.8191L16.8524 12L12.1289 7.1863Z" fill="#47B01A"/>
</svg>
