<svg viewBox="0 0 16 16" fill="none" xmlns="http://www.w3.org/2000/svg">
<g opacity="0.5">
<path d="M3.88337 11.3341L5.15003 12.6007C5.28337 12.7341 5.34725 12.8896 5.3417 13.0674C5.33614 13.2452 5.2667 13.4007 5.13337 13.5341C5.00003 13.6563 4.84448 13.7202 4.6667 13.7257C4.48892 13.7313 4.33337 13.6674 4.20003 13.5341L1.80003 11.1341C1.73337 11.0674 1.68614 10.9952 1.65837 10.9174C1.63059 10.8396 1.6167 10.7563 1.6167 10.6674C1.6167 10.5785 1.63059 10.4952 1.65837 10.4174C1.68614 10.3396 1.73337 10.2674 1.80003 10.2007L4.20003 7.80072C4.32225 7.6785 4.47503 7.61739 4.65837 7.61739C4.8417 7.61739 5.00003 7.6785 5.13337 7.80072C5.2667 7.93406 5.33337 8.09239 5.33337 8.27572C5.33337 8.45906 5.2667 8.61739 5.13337 8.75072L3.88337 10.0007H13.3334C13.5223 10.0007 13.6806 10.0646 13.8084 10.1924C13.9361 10.3202 14 10.4785 14 10.6674C14 10.8563 13.9361 11.0146 13.8084 11.1424C13.6806 11.2702 13.5223 11.3341 13.3334 11.3341H3.88337ZM12.1167 6.00072H2.6667C2.47781 6.00072 2.31948 5.93684 2.1917 5.80906C2.06392 5.68128 2.00003 5.52295 2.00003 5.33406C2.00003 5.14517 2.06392 4.98684 2.1917 4.85906C2.31948 4.73128 2.47781 4.66739 2.6667 4.66739H12.1167L10.85 3.40072C10.7167 3.26739 10.6528 3.11184 10.6584 2.93406C10.6639 2.75628 10.7334 2.60072 10.8667 2.46739C11 2.34517 11.1556 2.28128 11.3334 2.27572C11.5111 2.27017 11.6667 2.33406 11.8 2.46739L14.2 4.86739C14.2667 4.93406 14.3139 5.00628 14.3417 5.08406C14.3695 5.16184 14.3834 5.24517 14.3834 5.33406C14.3834 5.42295 14.3695 5.50628 14.3417 5.58406C14.3139 5.66184 14.2667 5.73406 14.2 5.80072L11.8 8.20072C11.6778 8.32295 11.525 8.38406 11.3417 8.38406C11.1584 8.38406 11 8.32295 10.8667 8.20072C10.7334 8.06739 10.6667 7.90906 10.6667 7.72572C10.6667 7.54239 10.7334 7.38406 10.8667 7.25072L12.1167 6.00072Z" fill="currentColor"/>
</g>
</svg>
