<svg viewBox="0 0 24 24" fill="none" xmlns="http://www.w3.org/2000/svg">
<g id="icons8-round (2) 1">
<path id="Vector" d="M12 2C6.489 2 2 6.489 2 12C2 17.511 6.489 22 12 22C17.511 22 22 17.511 22 12C22 6.489 17.511 2 12 2ZM12 4C16.4301 4 20 7.56988 20 12C20 16.4301 16.4301 20 12 20C7.56988 20 4 16.4301 4 12C4 7.56988 7.56988 4 12 4Z"/>
<path id="Vector_2" d="M10.3571 7.80515L11.0938 8.76792C11.4148 9.18745 11.447 9.76984 11.1727 10.2078L10.5259 11.2408C10.453 11.3574 10.4372 11.5033 10.4926 11.6289C10.7044 12.109 11.015 12.5562 11.4243 12.9709C11.8328 13.3847 12.2842 13.7101 12.7786 13.9468C12.9096 14.0094 13.0652 13.9943 13.187 13.9154L14.0999 13.3249C14.5202 13.0531 15.0661 13.1003 15.4549 13.4418L16.3607 14.2377C16.8126 14.6348 16.9249 15.3142 16.6234 15.8274L16.3001 16.3775C15.9784 16.9248 15.3994 17.2426 14.78 17.2115C13.3177 17.1381 11.7504 16.2055 10.0777 14.4134C8.40266 12.6189 7.54499 10.9508 7.50459 9.40977C7.48755 8.76125 7.79771 8.16143 8.31994 7.83299L8.84655 7.50171C9.34081 7.19157 9.98679 7.32128 10.3571 7.80515Z"/>
</g>
</svg>
