<svg viewBox="0 0 25 24" fill="none" xmlns="http://www.w3.org/2000/svg">
<g id="list_24dp_5F6368_FILL1_wght400_GRAD0_opsz24 (1) 1">
<path id="Vector" d="M8.5 7C8.21667 7 7.97917 6.90417 7.7875 6.7125C7.59583 6.52083 7.5 6.28333 7.5 6C7.5 5.71667 7.59583 5.47917 7.7875 5.2875C7.97917 5.09583 8.21667 5 8.5 5H20.5C20.7833 5 21.0208 5.09583 21.2125 5.2875C21.4042 5.47917 21.5 5.71667 21.5 6C21.5 6.28333 21.4042 6.52083 21.2125 6.7125C21.0208 6.90417 20.7833 7 20.5 7H8.5ZM8.5 13C8.21667 13 7.97917 12.9042 7.7875 12.7125C7.59583 12.5208 7.5 12.2833 7.5 12C7.5 11.7167 7.59583 11.4792 7.7875 11.2875C7.97917 11.0958 8.21667 11 8.5 11H20.5C20.7833 11 21.0208 11.0958 21.2125 11.2875C21.4042 11.4792 21.5 11.7167 21.5 12C21.5 12.2833 21.4042 12.5208 21.2125 12.7125C21.0208 12.9042 20.7833 13 20.5 13H8.5ZM8.5 19C8.21667 19 7.97917 18.9042 7.7875 18.7125C7.59583 18.5208 7.5 18.2833 7.5 18C7.5 17.7167 7.59583 17.4792 7.7875 17.2875C7.97917 17.0958 8.21667 17 8.5 17H20.5C20.7833 17 21.0208 17.0958 21.2125 17.2875C21.4042 17.4792 21.5 17.7167 21.5 18C21.5 18.2833 21.4042 18.5208 21.2125 18.7125C21.0208 18.9042 20.7833 19 20.5 19H8.5ZM4.5 7C4.21667 7 3.97917 6.90417 3.7875 6.7125C3.59583 6.52083 3.5 6.28333 3.5 6C3.5 5.71667 3.59583 5.47917 3.7875 5.2875C3.97917 5.09583 4.21667 5 4.5 5C4.78333 5 5.02083 5.09583 5.2125 5.2875C5.40417 5.47917 5.5 5.71667 5.5 6C5.5 6.28333 5.40417 6.52083 5.2125 6.7125C5.02083 6.90417 4.78333 7 4.5 7ZM4.5 13C4.21667 13 3.97917 12.9042 3.7875 12.7125C3.59583 12.5208 3.5 12.2833 3.5 12C3.5 11.7167 3.59583 11.4792 3.7875 11.2875C3.97917 11.0958 4.21667 11 4.5 11C4.78333 11 5.02083 11.0958 5.2125 11.2875C5.40417 11.4792 5.5 11.7167 5.5 12C5.5 12.2833 5.40417 12.5208 5.2125 12.7125C5.02083 12.9042 4.78333 13 4.5 13ZM4.5 19C4.21667 19 3.97917 18.9042 3.7875 18.7125C3.59583 18.5208 3.5 18.2833 3.5 18C3.5 17.7167 3.59583 17.4792 3.7875 17.2875C3.97917 17.0958 4.21667 17 4.5 17C4.78333 17 5.02083 17.0958 5.2125 17.2875C5.40417 17.4792 5.5 17.7167 5.5 18C5.5 18.2833 5.40417 18.5208 5.2125 18.7125C5.02083 18.9042 4.78333 19 4.5 19Z"/>
</g>
</svg>
