<svg viewBox="0 0 24 25" fill="none" xmlns="http://www.w3.org/2000/svg">
<path d="M4.30775 20C3.80258 20 3.375 19.825 3.025 19.475C2.675 19.125 2.5 18.6974 2.5 18.1923V6.80775C2.5 6.30258 2.675 5.875 3.025 5.525C3.375 5.175 3.80258 5 4.30775 5H19.6923C20.1974 5 20.625 5.175 20.975 5.525C21.325 5.875 21.5 6.30258 21.5 6.80775V18.1923C21.5 18.6974 21.325 19.125 20.975 19.475C20.625 19.825 20.1974 20 19.6923 20H4.30775ZM20 7.94225L12.4865 12.752C12.4097 12.7955 12.3302 12.8298 12.248 12.8548C12.166 12.8798 12.0833 12.8923 12 12.8923C11.9167 12.8923 11.834 12.8798 11.752 12.8548C11.6698 12.8298 11.5903 12.7955 11.5135 12.752L4 7.94225V18.1923C4 18.2821 4.02883 18.3558 4.0865 18.4135C4.14417 18.4712 4.21792 18.5 4.30775 18.5H19.6923C19.7821 18.5 19.8558 18.4712 19.9135 18.4135C19.9712 18.3558 20 18.2821 20 18.1923V7.94225ZM12 11.5L19.8463 6.5H4.15375L12 11.5ZM4 8.173V7.02975V7.0595V7.02775V8.173Z" fill="currentColor"/>
</svg>
