<svg viewBox="0 0 24 25" fill="none" xmlns="http://www.w3.org/2000/svg">
<g id="icons8-help (1) 1">
<path id="Vector" d="M12 2.5C6.489 2.5 2 6.989 2 12.5C2 18.011 6.489 22.5 12 22.5C17.511 22.5 22 18.011 22 12.5C22 6.989 17.511 2.5 12 2.5ZM12 4.5C16.4301 4.5 20 8.06988 20 12.5C20 16.9301 16.4301 20.5 12 20.5C7.56988 20.5 4 16.9301 4 12.5C4 8.06988 7.56988 4.5 12 4.5ZM12 6.5C9.79 6.5 8 8.29 8 10.5H10C10 9.4 10.9 8.5 12 8.5C13.1 8.5 14 9.4 14 10.5C14 12.5 11 12.867 11 15.5H13C13 13.849 16 13 16 10.5C16 8.29 14.21 6.5 12 6.5ZM11 16.5V18.5H13V16.5H11Z" fill="currentColor"/>
</g>
</svg>
