<svg viewBox="0 0 24 25" fill="none" xmlns="http://www.w3.org/2000/svg">
<path d="M12 2.5C6.489 2.5 2 6.989 2 12.5C2 18.011 6.489 22.5 12 22.5C17.511 22.5 22 18.011 22 12.5C22 6.989 17.511 2.5 12 2.5ZM12 4.5C16.4301 4.5 20 8.06988 20 12.5C20 16.9301 16.4301 20.5 12 20.5C7.56988 20.5 4 16.9301 4 12.5C4 8.06988 7.56988 4.5 12 4.5Z" fill="currentColor"/>
<path d="M10.3571 8.30515L11.0938 9.26792C11.4148 9.68745 11.447 10.2698 11.1727 10.7078L10.5259 11.7408C10.453 11.8574 10.4372 12.0033 10.4926 12.1289C10.7044 12.609 11.015 13.0562 11.4243 13.4709C11.8328 13.8847 12.2842 14.2101 12.7786 14.4468C12.9096 14.5094 13.0652 14.4943 13.187 14.4154L14.0999 13.8249C14.5202 13.5531 15.0661 13.6003 15.4549 13.9418L16.3607 14.7377C16.8126 15.1348 16.9249 15.8142 16.6234 16.3274L16.3001 16.8775C15.9784 17.4248 15.3994 17.7426 14.78 17.7115C13.3177 17.6381 11.7504 16.7055 10.0777 14.9134C8.40266 13.1189 7.54499 11.4508 7.50459 9.90977C7.48755 9.26125 7.79771 8.66143 8.31994 8.33299L8.84655 8.00171C9.34081 7.69157 9.98679 7.82128 10.3571 8.30515Z" fill="currentColor"/>
</svg>
