<svg viewBox="0 0 24 25" fill="none" xmlns="http://www.w3.org/2000/svg">
<path d="M21.9999 12.5C21.9999 17.4706 17.9704 21.5 12.9999 21.5C11.1523 21.5061 9.34868 20.9363 7.83985 19.87C7.7193 19.7831 7.64261 19.648 7.62985 19.5C7.61792 19.3559 7.66898 19.2136 7.76985 19.11L8.48985 18.38C8.65887 18.2127 8.9223 18.1876 9.11985 18.32C10.2661 19.0925 11.6176 19.5036 12.9999 19.5C16.8658 19.5 19.9999 16.366 19.9999 12.5C19.9999 8.63401 16.8658 5.5 12.9999 5.5C9.13386 5.5 5.99985 8.63401 5.99985 12.5H8.35985C8.49544 12.498 8.62578 12.5523 8.71985 12.65L8.91985 12.85C9.01451 12.9439 9.06775 13.0717 9.06775 13.205C9.06775 13.3383 9.01451 13.4661 8.91985 13.56L5.38985 17.1C5.19204 17.2918 4.87767 17.2918 4.67985 17.1L1.14985 13.56C1.0552 13.4661 1.00195 13.3383 1.00195 13.205C1.00195 13.0717 1.0552 12.9439 1.14985 12.85L1.34985 12.65C1.44393 12.5523 1.57427 12.498 1.70985 12.5H3.99985C3.99985 7.52944 8.02929 3.5 12.9999 3.5C17.9704 3.5 21.9999 7.52944 21.9999 12.5Z" fill="currentColor"/>
</svg>
