<svg viewBox="0 0 24 25" fill="none" xmlns="http://www.w3.org/2000/svg">
<path d="M8.14362 7.36289C7.82446 7.36289 7.55504 7.25314 7.33538 7.03364C7.11588 6.81397 7.00612 6.54456 7.00612 6.22539C7.00612 5.90622 7.11588 5.63681 7.33538 5.41714C7.55504 5.19764 7.82446 5.08789 8.14362 5.08789H20.0659C20.385 5.08789 20.6545 5.19764 20.8741 5.41714C21.0936 5.63681 21.2034 5.90622 21.2034 6.22539C21.2034 6.54456 21.0936 6.81397 20.8741 7.03364C20.6545 7.25314 20.385 7.36289 20.0659 7.36289H8.14362ZM8.14362 13.6379C7.82446 13.6379 7.55504 13.5281 7.33538 13.3086C7.11588 13.089 7.00612 12.8196 7.00612 12.5004C7.00612 12.1812 7.11588 11.9118 7.33538 11.6921C7.55504 11.4726 7.82446 11.3629 8.14362 11.3629H20.0659C20.385 11.3629 20.6545 11.4726 20.8741 11.6921C21.0936 11.9118 21.2034 12.1812 21.2034 12.5004C21.2034 12.8196 21.0936 13.089 20.8741 13.3086C20.6545 13.5281 20.385 13.6379 20.0659 13.6379H8.14362ZM8.14362 19.9129C7.82446 19.9129 7.55504 19.8031 7.33538 19.5836C7.11588 19.364 7.00612 19.0946 7.00612 18.7754C7.00612 18.4562 7.11588 18.1868 7.33538 17.9671C7.55504 17.7476 7.82446 17.6379 8.14362 17.6379H20.0659C20.385 17.6379 20.6545 17.7476 20.8741 17.9671C21.0936 18.1868 21.2034 18.4562 21.2034 18.7754C21.2034 19.0946 21.0936 19.364 20.8741 19.5836C20.6545 19.8031 20.385 19.9129 20.0659 19.9129H8.14362ZM3.92688 7.36289C3.60671 7.36289 3.33838 7.25422 3.12188 7.03689C2.90521 6.81939 2.79688 6.54997 2.79688 6.22864C2.79688 5.90731 2.90521 5.63681 3.12188 5.41714C3.33838 5.19764 3.60671 5.08789 3.92688 5.08789C4.24704 5.08789 4.51796 5.19747 4.73962 5.41664C4.96112 5.63581 5.07187 5.90739 5.07187 6.23139C5.07187 6.55189 4.96112 6.82064 4.73962 7.03764C4.51796 7.25447 4.24704 7.36289 3.92688 7.36289ZM3.92688 13.6379C3.60671 13.6379 3.33838 13.5271 3.12188 13.3056C2.90521 13.084 2.79688 12.8131 2.79688 12.4929C2.79688 12.1727 2.90521 11.9044 3.12188 11.6879C3.33838 11.4712 3.60671 11.3629 3.92688 11.3629C4.24704 11.3629 4.51796 11.4712 4.73962 11.6879C4.96112 11.9044 5.07187 12.1727 5.07187 12.4929C5.07187 12.8131 4.96112 13.084 4.73962 13.3056C4.51796 13.5271 4.24704 13.6379 3.92688 13.6379ZM3.92688 19.9069C3.60671 19.9069 3.33838 19.7982 3.12188 19.5809C2.90521 19.3634 2.79688 19.094 2.79688 18.7726C2.79688 18.4513 2.90521 18.1808 3.12188 17.9611C3.33838 17.7416 3.60671 17.6319 3.92688 17.6319C4.24704 17.6319 4.51796 17.7415 4.73962 17.9606C4.96112 18.1798 5.07187 18.4514 5.07187 18.7754C5.07187 19.0961 4.96112 19.3648 4.73962 19.5816C4.51796 19.7985 4.24704 19.9069 3.92688 19.9069Z" fill="currentColor"/>
</svg>
