<svg width="24" height="25" viewBox="0 0 24 25" fill="none" xmlns="http://www.w3.org/2000/svg">
<path fill-rule="evenodd" clip-rule="evenodd" d="M13.0018 21.5C17.9724 21.5 22.0018 17.4706 22.0018 12.5C22.0018 7.52944 17.9724 3.5 13.0018 3.5C8.03124 3.5 4.00181 7.52944 4.00181 12.5H1.71181C1.57622 12.498 1.44588 12.5523 1.35181 12.65L1.15181 12.85C1.05715 12.9439 1.00391 13.0717 1.00391 13.205C1.00391 13.3383 1.05715 13.4661 1.15181 13.56L4.68181 17.1C4.87962 17.2918 5.19399 17.2918 5.39181 17.1L8.92181 13.56C9.01646 13.4661 9.06971 13.3383 9.06971 13.205C9.06971 13.0717 9.01646 12.9439 8.92181 12.85L8.72181 12.65C8.62773 12.5523 8.49739 12.498 8.36181 12.5H6.00181C6.00181 8.63401 9.13581 5.5 13.0018 5.5C16.8678 5.5 20.0018 8.63401 20.0018 12.5C20.0018 16.366 16.8678 19.5 13.0018 19.5C11.6196 19.5036 10.268 19.0925 9.12181 18.32C8.92425 18.1876 8.66082 18.2127 8.49181 18.38L7.77181 19.11C7.67093 19.2136 7.61987 19.3559 7.63181 19.5C7.64457 19.648 7.72125 19.7831 7.84181 19.87C9.35064 20.9363 11.1542 21.5061 13.0018 21.5ZM12.1218 7.99999C12.1218 7.72385 12.3457 7.49999 12.6218 7.49999H13.3818C13.5144 7.49999 13.6416 7.55267 13.7354 7.64644C13.8291 7.7402 13.8818 7.86738 13.8818 7.99999V12.14L16.8018 15.06C16.8965 15.1539 16.9497 15.2817 16.9497 15.415C16.9497 15.5483 16.8965 15.6761 16.8018 15.77L16.2718 16.3C16.1779 16.3946 16.0501 16.4479 15.9168 16.4479C15.7835 16.4479 15.6557 16.3946 15.5618 16.3L12.2718 13.01C12.1802 12.9159 12.1267 12.7912 12.1218 12.66V7.99999Z" fill="currentColor"/>
</svg>
