<svg viewBox="0 0 25 24" fill="none" xmlns="http://www.w3.org/2000/svg">
<path d="M19.0763 13.4527C18.4161 10.1302 21.5697 8.18159 21.5697 8.18159C21.5697 8.18159 20.341 6.40395 18.2761 5.94664C16.2121 5.48832 15.1791 6.06094 14.1481 6.49042C13.1161 6.92095 12.6012 6.92095 12.6012 6.92095C11.1119 6.92095 10.0233 5.34413 7.18585 6.06199C5.23107 6.55531 3.17325 8.81189 2.80145 11.5052C2.42965 14.1994 3.23198 17.6373 4.77891 20.3017C6.32584 22.9682 7.90166 23.9703 9.02012 23.9992C10.1386 24.027 11.2551 23.1979 12.6012 22.996C13.9483 22.7962 14.7774 23.4842 16.0988 23.856C17.415 24.2268 17.8764 23.8828 19.3925 22.5933C20.9126 21.3038 22.2886 17.6054 22.2886 17.6054C22.2886 17.6054 19.7365 16.7773 19.0763 13.4527Z" fill="black"/>
<path d="M16.1534 3.79731C17.6159 2.30705 17.1205 0 17.1205 0C17.1205 0 15.0668 0.360484 13.6908 1.79206C12.3159 3.22469 12.5435 5.48743 12.5435 5.48743C12.5435 5.48743 14.6909 5.28661 16.1534 3.79731Z" fill="black"/>
</svg>
