<svg viewBox="0 0 33 32" fill="none" xmlns="http://www.w3.org/2000/svg">
    <g clip-path="url(#clip0)">
        <path d="M32.583 16C32.583 7.16344 25.4196 0 16.583 0C7.74645 0 0.583008 7.16344 0.583008 16C0.583008 23.9859 6.43395 30.6053 14.083 31.8056V20.625H10.0205V16H14.083V12.475C14.083 8.465 16.4718 6.25 20.1264 6.25C21.8764 6.25 23.708 6.5625 23.708 6.5625V10.5H21.6905C19.703 10.5 19.083 11.7334 19.083 13V16H23.5205L22.8111 20.625H19.083V31.8056C26.7321 30.6053 32.583 23.9859 32.583 16Z" fill="#1877F2"/>
        <path d="M22.8111 20.625L23.5205 16H19.083V13C19.083 11.7347 19.703 10.5 21.6905 10.5H23.708V6.5625C23.708 6.5625 21.8771 6.25 20.1264 6.25C16.4718 6.25 14.083 8.465 14.083 12.475V16H10.0205V20.625H14.083V31.8056C15.7396 32.0648 17.4264 32.0648 19.083 31.8056V20.625H22.8111Z" fill="white"/>
    </g>
    <defs>
        <clipPath id="clip0">
            <rect width="32" height="32" fill="white" transform="translate(0.583008)"/>
        </clipPath>
    </defs>
</svg>
