<svg viewBox="0 0 33 32" fill="none" xmlns="http://www.w3.org/2000/svg">
<g clip-path="url(#clip0)">
<path d="M32.2059 16.3685C32.2059 15.2808 32.1177 14.1873 31.9296 13.1173H16.8379V19.2786H25.4802C25.1216 21.2658 23.9693 23.0236 22.282 24.1406V28.1384H27.4379C30.4657 25.3517 32.2059 21.2364 32.2059 16.3685Z" fill="#4285F4"/>
<path d="M16.8376 32.0012C21.1528 32.0012 24.792 30.5843 27.4435 28.1386L22.2875 24.1408C20.853 25.1167 19.0011 25.6694 16.8434 25.6694C12.6693 25.6694 9.13003 22.8533 7.86015 19.0671H2.53955V23.1884C5.2557 28.5913 10.7879 32.0012 16.8376 32.0012Z" fill="#34A853"/>
<path d="M7.85461 19.067C7.18439 17.0798 7.18439 14.9281 7.85461 12.941V8.8197H2.53989C0.270556 13.3407 0.270556 18.6672 2.53989 23.1882L7.85461 19.067Z" fill="#FBBC04"/>
<path d="M16.8375 6.33288C19.1186 6.2976 21.3233 7.15595 22.9753 8.73156L27.5434 4.16349C24.6509 1.44734 20.8118 -0.0459547 16.8375 0.00107822C10.7879 0.00107822 5.2557 3.41096 2.53955 8.81974L7.85427 12.941C9.11828 9.14897 12.6634 6.33288 16.8375 6.33288Z" fill="#EA4335"/>
</g>
<defs>
<clipPath id="clip0">
<rect width="32" height="32" fill="white" transform="translate(0.517578)"/>
</clipPath>
</defs>
</svg>
