<svg viewBox="0 0 75 75" fill="none" xmlns="http://www.w3.org/2000/svg">
<g id="check_circle_24dp_5F6368_FILL1_wght400_GRAD0_opsz24 (1) 2">
<path id="Vector" d="M32.67 43.71L25.2525 36.2925C24.62 35.66 23.815 35.3438 22.8375 35.3438C21.86 35.3438 21.055 35.66 20.4225 36.2925C19.79 36.925 19.4737 37.73 19.4737 38.7075C19.4737 39.685 19.79 40.49 20.4225 41.1225L30.255 50.955C30.945 51.645 31.75 51.99 32.67 51.99C33.59 51.99 34.395 51.645 35.085 50.955L54.5775 31.4625C55.21 30.83 55.5262 30.025 55.5262 29.0475C55.5262 28.07 55.21 27.265 54.5775 26.6325C53.945 26 53.14 25.6838 52.1625 25.6838C51.185 25.6838 50.38 26 49.7475 26.6325L32.67 43.71ZM37.5 72C32.7275 72 28.2425 71.0944 24.045 69.2831C19.8475 67.4719 16.1962 65.0137 13.0913 61.9087C9.98625 58.8037 7.52812 55.1525 5.71688 50.955C3.90562 46.7575 3 42.2725 3 37.5C3 32.7275 3.90562 28.2425 5.71688 24.045C7.52812 19.8475 9.98625 16.1962 13.0913 13.0913C16.1962 9.98625 19.8475 7.52812 24.045 5.71688C28.2425 3.90562 32.7275 3 37.5 3C42.2725 3 46.7575 3.90562 50.955 5.71688C55.1525 7.52812 58.8037 9.98625 61.9087 13.0913C65.0137 16.1962 67.4719 19.8475 69.2831 24.045C71.0944 28.2425 72 32.7275 72 37.5C72 42.2725 71.0944 46.7575 69.2831 50.955C67.4719 55.1525 65.0137 58.8037 61.9087 61.9087C58.8037 65.0137 55.1525 67.4719 50.955 69.2831C46.7575 71.0944 42.2725 72 37.5 72Z" fill="#26D483"/>
</g>
</svg>
