<svg viewBox="0 0 24 24" fill="none" xmlns="http://www.w3.org/2000/svg">
<g id="Frame" clip-path="url(#clip0_12254_284706)">
<path id="Vector" d="M16.0809 0.960938C15.8297 0.960938 15.5859 1.03969 15.3834 1.18594H15.3816L10.2216 4.47094C9.83906 4.68281 9.60094 5.08406 9.60094 5.52094C9.60094 6.18281 10.1391 6.72094 10.8009 6.72094C11.0503 6.72094 11.2922 6.64219 11.4947 6.49781L16.6959 3.19219H16.6941C17.0578 2.97469 17.2809 2.58469 17.2809 2.16094C17.2809 1.49906 16.7428 0.960938 16.0809 0.960938ZM17.1328 3.89719L11.8809 7.08656L14.9034 12.0628L20.1534 8.87344L17.1328 3.89719ZM21.3609 9.12094C21.1097 9.12094 20.8659 9.19969 20.6634 9.34594H20.6616L15.4847 12.6403C15.1116 12.8541 14.8809 13.2516 14.8809 13.6809C14.8809 14.3428 15.4191 14.8809 16.0809 14.8809C16.3341 14.8809 16.5816 14.7984 16.7859 14.6484L21.9759 11.3503C22.3378 11.1347 22.5609 10.7428 22.5609 10.3209C22.5609 9.65906 22.0228 9.12094 21.3609 9.12094ZM12.3609 9.14531L1.77094 15.0253C1.27594 15.2672 0.960938 15.7697 0.960938 16.3209C0.960938 17.1159 1.60594 17.7609 2.40094 17.7609C2.68219 17.7609 2.95781 17.6766 3.19219 17.5209L3.19406 17.5228L13.3509 10.7766L12.3609 9.14531ZM12.9609 20.6409C12.4303 20.6409 12.0009 21.0703 12.0009 21.6009V23.0409H23.0409V21.6009C23.0409 21.0703 22.6116 20.6409 22.0809 20.6409H12.9609Z" fill="black"/>
</g>
<defs>
<clipPath id="clip0_12254_284706">
<rect width="24" height="24" fill="white"/>
</clipPath>
</defs>
</svg>
